/* XPM */
static char *collect_left_0021675835372[] = {
/* columns rows colors chars-per-pixel */
"64 64 14 1 ",
"  c None",
". c black",
"X c #6F5E00",
"o c #817414",
"O c #D07B1D",
"+ c #8B801D",
"@ c #888A18",
"# c #B39D13",
"$ c #98933D",
"% c #B6A84D",
"& c #E8A547",
"* c #C2EA59",
"= c #D5C567",
"- c white",
/* pixels */
"                                                                ",
"                                                                ",
"                                                                ",
"                                                                ",
"                                                                ",
"                                                                ",
"                                                                ",
"                                                                ",
"                                                                ",
"                                                                ",
"                                                                ",
"                                                                ",
"                                                                ",
"                                                                ",
"                      -------------------------                 ",
"                     --.......................--                ",
"                     -.$%%%%%%%%%%%%%%%.======.-                ",
"                     -.$%%%%%%%%%%%%%%%.======.-                ",
"                     -.$%XXXXXXXXXXXX%%.=====-.-                ",
"                     -.$%XooooooooooX%%.======.-                ",
"                     -.$%Xo++++++++oX%%.==XX==.-                ",
"                     -.$%Xo+*****++o-%%.%X==X=.-                ",
"                     -.$-Xo+**#**++---%.%X%=X=.-                ",
"                     -.---o+*###*++o-%%.%X%%X=.-                ",
"                     -.$-Xo+**#**++oX%%.%X$$X=.-                ",
"                     -.$%Xo+*****++oX%%.%%XX==.-                ",
"                     -.$%XooooooooooX%%.=%%%==.-                ",
"                     -.$%XXXXXXXXXXXX%%.======.-                ",
"                     -.$$%%%%%%%%-%%%%%.======.-                ",
"                     -.$$$$$$$$$---$$$$.======.-                ",
"                     --..........-......XX....--                ",
"                      ------.$XXX%%%%==.O&.----                 ",
"                           -.X@X=XX%%=X.O&.-                    ",
"                           -.X@X%==XXX%=XX.-                    ",
"                           -.X@X$%===X$%X=.-                    ",
"                           -.X@X$%===X$$X=.-                    ",
"                           -.X@X%==XXXX.%=.-                    ",
"                           -.X@X=XX%%=%.%=.-                    ",
"                           -.$XXX%%%%==.%=.-                    ",
"                           -.%$$$%%%-==.%=.-                    ",
"                           -.%%-%%%---=.%=.-                    ",
"                           -.%%%%%%%-==...--                    ",
"                           -.%%%%%%X%==.---                     ",
"                           -.%%$$$$X%==.-                       ",
"                           -.%=.....%==.-                       ",
"                           -.%=.---.%==.-                       ",
"                           -.$=.- -.%==.-                       ",
"                           -.$$.- -.%==.-                       ",
"                           -....- -.....-                       ",
"                           ------ -------                       ",
"                                                                ",
"                                                                ",
"                                                                ",
"                                                                ",
"                                                                ",
"                                                                ",
"                                                                ",
"                                                                ",
"                                                                ",
"                                                                ",
"                                                                ",
"                                                                ",
"                                                                ",
"                                                                "
};
