/* XPM */
static char *collect_left_0011675835372[] = {
/* columns rows colors chars-per-pixel */
"64 64 14 1 ",
"  c None",
". c black",
"X c #A18700",
"o c #AD960D",
"O c #B39D13",
"+ c #B1A410",
"@ c #BCAA28",
"# c #E09A13",
"$ c #CFB832",
"% c #F0B52F",
"& c #D7E33A",
"* c #E4CA44",
"= c #FFFBE9",
"- c white",
/* pixels */
"                                                                ",
"                                                                ",
"                                                                ",
"                                                                ",
"                                                                ",
"                                                                ",
"                                                                ",
"                                                                ",
"                                                                ",
"                                                                ",
"                                                                ",
"                                                                ",
"                                                                ",
"                                                                ",
"                      -------------------------                 ",
"                     --.......................--                ",
"                     -.@$$$$$$$$$$$$$$$X******.-                ",
"                     -.@$$$$$$$$$$$$$$$X******.-                ",
"                     -.@$XXXXXXXXXXXX$$X******.-                ",
"                     -.@$XooooooooooX$$=******.-                ",
"                     -.@$XoOOOOOOOOoX$===*XX**=--               ",
"                     -.@$XoO&&&&&O-oX$$=$X**X===-               ",
"                     -.@$XoO&&O&&---X$$X$X$*X*=--               ",
"                     -.@$-oO&OOO&O-oX$$X$X$$X*.-                ",
"                     -.@---O&&O&&OOoX$$X$X@@X*.-                ",
"                     -.@$-oO&&&&&OOoX$$X$$XX**.-                ",
"                     -.@$XooooooooooX$$X*$$$**.-                ",
"                     -.@$XXXXXXXXXXXX$$X******.-                ",
"                     -.@@$$$$$$$$$$$$$$X******.-                ",
"                     -.-@@@@@@@@@@@@@@@X******.-                ",
"                     --.......................--                ",
"                      ------.@XXX$$$$**.#%.----                 ",
"                           -.X+X*XX$$*X.#%.-                    ",
"                           -.X+X$**XXX$*XX.-                    ",
"                           -.X+X@$***X@$X*.-                    ",
"                           -.X+X@$***X@@X*.-                    ",
"                           -.X+X$**XXXX.$*.-                    ",
"                           -.X+X*XX$$*$.$*.-                    ",
"                           -.@X=X$$$$**.$*.-                    ",
"                           -.$===$$$$**.$*.-                    ",
"                           -.$$=$$$$$-*.$*.-                    ",
"                           -.$$$$$$$$**...--                    ",
"                           -.$$$$$$.$**.---                     ",
"                           -.$$@@@@.$**.-                       ",
"                           -.$*.....$**.-                       ",
"                           -.$*.---.$**.-                       ",
"                           -.@*.- -.$**.-                       ",
"                           -.@@.- -.$**.-                       ",
"                           -....- -.....-                       ",
"                           ------ -------                       ",
"                                                                ",
"                                                                ",
"                                                                ",
"                                                                ",
"                                                                ",
"                                                                ",
"                                                                ",
"                                                                ",
"                                                                ",
"                                                                ",
"                                                                ",
"                                                                ",
"                                                                ",
"                                                                "
};
