/* XPM */
static char *hurt_left_0011675835372[] = {
/* columns rows colors chars-per-pixel */
"64 64 13 1 ",
"  c None",
". c black",
"X c #8A0000",
"o c #991210",
"O c #A01C18",
"+ c #9E2413",
"@ c #AB2B32",
"# c #D81717",
"$ c #C33D3E",
"% c #ED3A3A",
"& c #DD5454",
"* c #CD7149",
"= c white",
/* pixels */
"                                                                ",
"                                                                ",
"                                                                ",
"                                                                ",
"                                                                ",
"                                                                ",
"                                                                ",
"                                                                ",
"                                                                ",
"                                                                ",
"                                                                ",
"                                                                ",
"                                                                ",
"                                                                ",
"                      =========================                 ",
"                     ==.......................==                ",
"                     =.@$$$$$$$$$$$$$$$X&&&&&&.=                ",
"                     =.@$$$$$$$$$$$$$$$X&&&&&&.=                ",
"                     =.@$XXXXXXXXXXXX$$X&&&&&&.=                ",
"                     =.@$XooooooooooX$$X&&&&&&.=                ",
"                     =.@$Xo*OOOOOOOoX$$X&&XX&&.=                ",
"                     =.@$XoOO*OOO*OoX$$X$X&&X&.=                ",
"                     =.@$XoOOOO*OOOoX$$X$X$&X&.=                ",
"                     =.@$XoOOOOOOOOoX$$X$X$$X&.=                ",
"                     =.@$XoO*OOOOOOoX$$X$X@@X&.=                ",
"                     =.@$Xo*OOOOOO*oX$$X$$XX&&.=                ",
"                     =.@$XooooooooooX$$X&$$$&&.=                ",
"                     =.@$XXXXXXXXXXXX$$X&&&&&&.=                ",
"                     =.@@$$$$$$$$$$$$$$X&&&&&&.=                ",
"                     =.@@@@@@@@@@@@@@@@X&&&&&&.=                ",
"                     ==.......................==                ",
"                      ======.@XXX$$$$&&.#%.====                 ",
"                           =.X+X&XX$$&X.#%.=                    ",
"                           =.X+X$&&XXX$&XX.=                    ",
"                           =.X+X@$&&&X@$X&.=                    ",
"                           =.X+X@$&&&X@@X&.=                    ",
"                           =.X+X$&&XXXX.$&.=                    ",
"                           =.X+X&XX$$&$.$&.=                    ",
"                           =.@XXX$$$$&&.$&.=                    ",
"                           =.$@@@$$$$&&.$&.=                    ",
"                           =.$$$$$$$$&&.$&.=                    ",
"                           =.$$$$$$$$&&...==                    ",
"                           =.$$$$$$X$&&.===                     ",
"                           =.$$@@@@X$&&.=                       ",
"                           =.$&.....$&&.=                       ",
"                           =.$&.===.$&&.=                       ",
"                           =.@&.= =.$&&.=                       ",
"                           =.@@.= =.$&&.=                       ",
"                           =....= =.....=                       ",
"                           ====== =======                       ",
"                                                                ",
"                                                                ",
"                                                                ",
"                                                                ",
"                                                                ",
"                                                                ",
"                                                                ",
"                                                                ",
"                                                                ",
"                                                                ",
"                                                                ",
"                                                                ",
"                                                                ",
"                                                                "
};
