/* XPM */
static char *hurt_left_0031675835373[] = {
/* columns rows colors chars-per-pixel */
"64 64 13 1 ",
"  c None",
". c black",
"X c #500000",
"o c #661B18",
"O c #6E361D",
"+ c #722A23",
"@ c #C62323",
"# c #82404B",
"$ c #A65A5D",
"% c #E45656",
"& c #CC7D7D",
"* c #B4A96C",
"= c white",
/* pixels */
"                                                                ",
"                                                                ",
"                                                                ",
"                                                                ",
"                                                                ",
"                                                                ",
"                                                                ",
"                                                                ",
"                                                                ",
"                                                                ",
"                                                                ",
"                                                                ",
"                                                                ",
"                                                                ",
"                                                                ",
"                                                                ",
"                     ============================               ",
"                    ==..........................==              ",
"                    =.#$$$$$$$$$$$$$$$$$X&&&&&&&.=              ",
"                    =.#$$$$$$$$$$$$$$$$$X&&&&&&&.=              ",
"                    =.#$XXXXXXXXXXXXXX$$X&&&&&&&.=              ",
"                    =.#$XooooooooooooX$$X&&&&&&&.=              ",
"                    =.#$Xo**++++++**oX$$X&&XXX&&.=              ",
"                    =.#$Xo++**++**++oX$$X$X&&&X&.=              ",
"                    =.#$Xo++++**++++oX$$X$X$$$X&.=              ",
"                    =.#$Xo++**++**++oX$$X$X###X&.=              ",
"                    =.#$Xo**++++++**oX$$X$$XXX&&.=              ",
"                    =.#$XooooooooooooX$$X&$$$$&&.=              ",
"                    =.#$XXXXXXXXXXXXXX$$X&&&&&&&.=              ",
"                    =.##$$$$$$$$$$$$$$$$X&&&&&&&.=              ",
"                    =.##################X&&&&&&&.=              ",
"                    ==..........................==              ",
"                     =======....$$$$$&&...=======               ",
"                           =.OX&XXX$$XXX@%.=                    ",
"                           =.OX$&&XXX$&X@%.=                    ",
"                           =.OX#$&&&X#$XXX.=                    ",
"                           =.OX#$&&&X##X$&.=                    ",
"                           =.OX$&&XXXXXX$&.=                    ",
"                           =.OX&XXX##&&X$&.=                    ",
"                           =.XXX###$$&&X$&.=                    ",
"                           =.####$$$$&&X$&.=                    ",
"                           =.$$$$$$$$&&X$&.=                    ",
"                           =.$$$$$$$$&&X$&.=                    ",
"                           =.$$$$$$X$&&...==                    ",
"                           =.$$####X$&&.===                     ",
"                           =.$&.....$&&.=                       ",
"                           =.#&.===.$&&.=                       ",
"                           =.##.= =.$&&.=                       ",
"                           =....= =.....=                       ",
"                           ====== =======                       ",
"                                                                ",
"                                                                ",
"                                                                ",
"                                                                ",
"                                                                ",
"                                                                ",
"                                                                ",
"                                                                ",
"                                                                ",
"                                                                ",
"                                                                ",
"                                                                ",
"                                                                ",
"                                                                "
};
