/* XPM */
static char *idle_left_0051675835374[] = {
/* columns rows colors chars-per-pixel */
"64 64 13 1 ",
"  c None",
". c black",
"X c #212722",
"o c #323C33",
"O c #2D4E29",
"+ c #4A5D6C",
"@ c #AC3232",
"# c #D87D7D",
"$ c #6DE579",
"% c #7E8387",
"& c #B6B6B6",
"* c #93F69D",
"= c white",
/* pixels */
"                                                                ",
"                                                                ",
"                                                                ",
"                                                                ",
"                                                                ",
"                                                                ",
"                                                                ",
"                                                                ",
"                                                                ",
"                                                                ",
"                                                                ",
"                       =======================                  ",
"                      ==.....................==                 ",
"                      =.+%%%%%%%%%%%%%%.&&&&&.=                 ",
"                      =.+%%%%%%%%%%%%%%.&&&&&.=                 ",
"                      =.+%...........%%.&&&&&.=                 ",
"                      =.+%.XXXXXXXXX.%%.&&&&&.=                 ",
"                      =.+%.XoooooooX.%%.&..&&.=                 ",
"                      =.+%.XoooooooX.%%..&&.&.=                 ",
"                      =.+%.X$$o**ooX.%%..%&.&.=                 ",
"                      =.+%.X**o$$ooX.%%..%%.&.=                 ",
"                      =.+%.X**o$$ooX.%%..%%.&.=                 ",
"                      =.+%.X$$o**ooX.%%..%%.&.=                 ",
"                      =.+%.XoooooooX.%%..++.&.=                 ",
"                      =.+%.Xo$*$oooX.%%.%..&&.=                 ",
"                      =.+%.XXXXXXXXX.%%.%%%&&.=                 ",
"                      =.+%...........%%.&&&&&.=                 ",
"                      =.++%%%%%%%%%%%%%.&&&&&.=                 ",
"                      =.+++++++++++++++.&&&&&.=                 ",
"                      ==.....................==                 ",
"                       =====.+...%%%%&&.@#.===                  ",
"                           =..O.&..%%&..@#.=                    ",
"                           =..O.%&&...%&...=                    ",
"                           =..O.+%&&&.+%.&.=                    ",
"                           =..O.+%&&&.++.&.=                    ",
"                           =..O.%&&.....%&.=                    ",
"                           =..O.&..%%&%.%&.=                    ",
"                           =.+...%%%%&&.%&.=                    ",
"                           =.++++%%%%&&.%&.=                    ",
"                           =.%%%%%%%%&&.%&.=                    ",
"                           =.%%%%%%%%&&...==                    ",
"                           =.%%%%%%.%&&.===                     ",
"                           =.%%++++.%&&.=                       ",
"                           =.%&.....%&&.=                       ",
"                           =.%&.===.%&&.=                       ",
"                           =.%&.= =.%&&.=                       ",
"                           =.+&.= =.%&&.=                       ",
"                           =.++.= =.%&&.=                       ",
"                           =....= =.....=                       ",
"                           ====== =======                       ",
"                                                                ",
"                                                                ",
"                                                                ",
"                                                                ",
"                                                                ",
"                                                                ",
"                                                                ",
"                                                                ",
"                                                                ",
"                                                                ",
"                                                                ",
"                                                                ",
"                                                                ",
"                                                                "
};
