/* XPM */
static char *d5bd6c82115049fb9c343117dffbafa3g7iCVvoSlRRgxPq1[] = {
/* columns rows colors chars-per-pixel */
"64 64 162 2 ",
"   c None",
".  c #5B0A00",
"X  c #5D0D00",
"o  c #411100",
"O  c #641200",
"+  c #671601",
"@  c #6B1C0F",
"#  c #69161E",
"$  c #51200F",
"%  c #72220B",
"&  c #782D0D",
"*  c #652C11",
"=  c #6F2518",
"-  c #672A18",
";  c #7B2D17",
":  c #7C2E17",
">  c #7F311A",
",  c #7E3D1F",
"<  c #661E22",
"1  c #631C2A",
"2  c #651C2F",
"3  c #761A33",
"4  c #6B2327",
"5  c #6E232A",
"6  c #682A2B",
"7  c #6E2C2E",
"8  c #722722",
"9  c #712527",
"0  c #712822",
"q  c #712C27",
"w  c #752C26",
"e  c #7D2B20",
"r  c #782B25",
"t  c #72212A",
"y  c #7B232F",
"u  c #7D262F",
"i  c #752B2A",
"p  c #732B2E",
"a  c #712D2E",
"s  c #78282B",
"d  c #782F28",
"f  c #782E2B",
"g  c #792A2F",
"h  c #6F302B",
"j  c #76302E",
"k  c #78332C",
"l  c #682931",
"z  c #6F2B36",
"x  c #6F2D37",
"c  c #6D2E36",
"v  c #792735",
"b  c #732A31",
"n  c #722B31",
"m  c #772A32",
"M  c #762B32",
"N  c #702A35",
"B  c #732B36",
"V  c #772937",
"C  c #7C2C35",
"Z  c #79263A",
"A  c #78253F",
"S  c #752A3F",
"D  c #762C3D",
"F  c #752E3C",
"G  c #723031",
"H  c #763136",
"J  c #773634",
"K  c #74393D",
"L  c #794223",
"P  c #612042",
"I  c #782245",
"U  c #732940",
"Y  c #7A2A45",
"T  c #772555",
"R  c #82332C",
"E  c #832E33",
"W  c #873736",
"Q  c #8D3F35",
"!  c #833038",
"~  c #84383A",
"^  c #863F3B",
"/  c #8A3F3C",
"(  c #8D3F3F",
")  c #905229",
"_  c #8B4134",
"`  c #8E4139",
"'  c #9D4031",
"]  c #934338",
"[  c #954639",
"{  c #93463C",
"}  c #94463C",
"|  c #95463F",
" . c #96463F",
".. c #9D433A",
"X. c #9B483A",
"o. c #96523D",
"O. c #A64A3B",
"+. c #8B3041",
"@. c #883644",
"#. c #8B3840",
"$. c #883D41",
"%. c #8A3E40",
"&. c #8A3D43",
"*. c #893B49",
"=. c #8F3F4C",
"-. c #903E42",
";. c #993D42",
":. c #983E47",
">. c #9F3A4C",
",. c #8F4544",
"<. c #944445",
"1. c #9C4241",
"2. c #984346",
"3. c #9A4644",
"4. c #9D4841",
"5. c #9F4A43",
"6. c #95434F",
"7. c #9C424B",
"8. c #994749",
"9. c #9B464D",
"0. c #95494B",
"q. c #93484D",
"w. c #964A4E",
"e. c #9E4251",
"r. c #9A4854",
"t. c #A2494F",
"y. c #A35A49",
"u. c #BE564D",
"i. c #B76444",
"p. c #9A466A",
"a. c #C76854",
"s. c #CF8139",
"d. c #E38C3D",
"f. c #F88A33",
"g. c #F3B627",
"h. c #F3A930",
"j. c #FFBA32",
"k. c #F9B138",
"l. c #FFBF3A",
"z. c #E7C909",
"x. c #F6C11B",
"c. c #F1CE28",
"v. c #FFC828",
"b. c #FFD122",
"n. c #FADB29",
"m. c #FFDA2D",
"M. c #F4C336",
"N. c #FCC938",
"B. c #FFD23B",
"V. c #FBE223",
"C. c #BF8253",
"Z. c #D29252",
"A. c #F6B14A",
"S. c #FFBC4D",
"D. c #FBAF5B",
"F. c #FEAE59",
"G. c #F8BD57",
"H. c #FFB06A",
"J. c #F8B469",
"K. c #FCD85E",
"L. c #FFE74C",
"P. c #FFE764",
/* pixels */
"                                                                                                                                ",
"                                                                                                                                ",
"                                                                                                                                ",
"                                                                                                                                ",
"                                                                                                                                ",
"                                                                                                                                ",
"                                                                                                                                ",
"                                                                                                                                ",
"                                                                                                                                ",
"                                                                                                                                ",
"                                                                                                                                ",
"                                                                                                                                ",
"                                                                                                                                ",
"                                                                                                                                ",
"                                                                                                                                ",
"                    D.D.D.D.D.D.D.D.D.D.D.D.D.D.D.D.D.D.D.D.D.D.D.D.D.D.D.D.D.D.D.D.D.D.D.D.D.                                  ",
"                D.D.D.D.D.D.D.D.D.D.D.D.D.D.D.D.D.D.D.D.D.D.D.D.D.D.D.D.D.D.D.D.D.D.D.D.D.D.D.                                  ",
"              D.D.D.n n D.D.D.D.7.7.7.7.7.7.7.7.7.7.7.7.7.7.7.7.7.7.7.7.7.7.7.7.7.7.7.a a i.f.                                  ",
"            D.D.n n n n D.D.D.D.7.7.7.7.7.7.7.7.7.7.7.7.7.7.7.7.7.7.7.7.7.7.7.7.7.7.a a a i.f.                                  ",
"            D.D.n n n n D.D.D.D.~ ~ ~ ~ ~ ~ ~ ~ ~ ~ ~ ~ ~ ~ ~ ~ ~ ~ ~ ~ ~ ~ ~ ~ ~ a a a a i.f.                                  ",
"          D.D.n n n n n D.D.K.K.b b b b n b b b n b b b b b b b b b b b b b b b n a a a c C.N.                                  ",
"          D.D.n n n n n D.D.K.K.b b b b b b b b n n b b b b b n b b b b b b b b n a a a c Z.N.                                  ",
"          D.D.n n n n n D.D.K.K.7.7.7.7.7.7.7.7.7.7.7.7.>.7.7.7.7.7.7.7.7.7.7.7.7.a a a n i.N.                                  ",
"          D.D.n n n n n D.D.K.K.7.7.7.7.7.7.7.7.7.7.7.>.N.B.B.n.l.7.7.7.7.7.7.7.7.a a a l Z.N.                                  ",
"          D.D.n n n n n D.D.K.K.7.7.7.7.7.7.7.7.7.7.7.7.n.B.M.m.B.n.7.7.7.7.7.7.7.a a a a Z.N.                                  ",
"          D.D.n n n n n D.D.K.K.b b b b b b b b b b b b n l.B.j.B.B.b n b b b b b a a a c i.N.                                  ",
"          D.D.n n n n n D.D.K.K.b b b b b b b n b n B.n.B.n.B.B.l.B.B.j.n.b b b n ~ n.B.B.N.N.                                  ",
"            D.D.n n n n D.D.K.K.~ ~ ~ ~ ~ ~ ~ ~ ~ ~ j.g.z.B.B.B.B.B.l.B.B.~ ~ ~ ~ 7.B.x.M.n.N.                                  ",
"            D.D.D.n n n D.D.K.K.7.7.7.7.7.7.7.7.7.j.n.B.B.j.p.B.B.l.B.B.7.7.7.7.7.7.B.n.B.B.N.                                  ",
"              D.D.D.n n D.D.K.K.7.7.7.7.7.B.B.j.B.B.| 6.) B.B.l.B.j.l.B.n.n.B.l.B.n.B.t P B.l.B.B.B.n.                          ",
"                D.D.D.D.D.D.K.K.j.l.B.j.B.B.j.l.n.B.B.B.n.B.B.n.B.B.j.B.B.B.l.j.l.l.B.B.B.B.v.c.b.V.B.                          ",
"                    D.D.D.D.K.K.B.B.l.B.l.n.B.B.n.B.n.B.n.n.l.B.B.n.B.l.n.B.B.B.B.l.j.l.l.n.B.B.n.n.B.                          ",
"                            D.D.D.D.D.D.D.D.D.D.D.D.D.D.D.D.D.K.K.K.K.K.K.K.K.K.K.K.K.K.K.K.K.K.K.K.K.K.K.K.K.K.                ",
"                            D.D.D.D.D.D.D.D.D.D.D.D.D.D.D.D.D.K.K.K.K.K.K.K.K.K.K.K.K.K.K.K.K.K.K.K.K.K.K.K.K.K.                ",
"                            D.D.p p p p p p p p p p p p - D.D.K.K.K K G * K.K.N z z z z z z z z K.K.z U H o K.K.                ",
"                            D.D.p p p p p p p p p p p p - D.D.K.K.K K f * K.K.N n i n i p p p p K.K.z T S $ K.K.                ",
"                            D.D.<.<.<.<.<.<.<.<.<.<.<.<.W D.D.K.K.<.<.| ` K.K.2.1.1.1.1.1.1.1.1.K.K.q.q.o.L K.K.                ",
"                            D.D.<.<.<.<.<.<.<.<.<.<.<.<.W D.D.K.K.<.<.| / K.K.1.1.1.1.1.1.1.1.1.K.K.q.w.y., K.K.                ",
"                            D.D.<.<.<.<.<.<.<.<.<.<.<.<.W D.D.K.K.<.<.3./ K.K.1.1...1.1.1.1.1.1.K.K.q.r.{ ; K.K.                ",
"                            D.D.p p p p p p p p p p p p - D.D.K.K.p p r e K.K.p v E Z.P.2 < 9 i K.K.z Z w O K.K.                ",
"                            D.D.p p p p p p p p M a p p - D.D.K.K.p p r = K.K.p v d.J.j G.& i i K.K.c F J . K.K.                ",
"                            D.D.p p p p p p p p b i p p - D.D.K.K.p p C @ K.K.f a.S.S.# H.h.d ! K.K.c F 0 X K.K.                ",
"                            D.D.3.3.3.3.3.3.3.3.3.3.3.2.W D.D.K.K.3.3.3.[ K.K.,.O.u.k.u D.Q :.5.K.K.q.7.| > K.K.                ",
"                            D.D.3.3.3.3.3.3.3.3.3.3.3.2.W D.D.K.K.3.3.8./ K.K.8.4.>.s.A.+.:.e.X.K.K.q.t.] ; K.K.                ",
"                            D.D.3.3.3.3.3.3.3.3.3.3.3.#.m D.D.K.K.3.3.$.R K.K.%.` Q <.@._ %.*._ K.K.q.=.` % K.K.                ",
"                            D.D.Z Z Z Z Z Z Z Z Z Z Z #.1 D.D.K.K.5 Z Z 1 K.K.U m 9 Y M 4 N N 7 K.K.N S i + K.K.                ",
"                      n.B.l.D.D.Z Z Z Z Z Z Z Z Z Z Z 3 1 D.D.K.K.5 Z 3 1 K.K.5 G s q N c 7 l 6 K.K.N I i + K.K.l.n.            ",
"                      B.n.l.D.D.D.D.D.D.D.D.D.D.D.D.D.D.D.D.D.K.K.K.K.K.K.K.K.K.K.K.K.K.K.K.K.K.K.K.K.K.K.K.K.K.L.n.            ",
"                    l.B.l.B.D.D.D.D.D.D.D.D.D.D.D.D.D.D.D.D.D.K.K.K.K.K.K.K.K.K.K.K.K.K.K.K.K.K.K.K.K.K.K.K.K.K.n.L.N.          ",
"                                                                                                                                ",
"                                                                                                                                ",
"                                                                                                                                ",
"                                                                                                                                ",
"                                                                                                                                ",
"                                                                                                                                ",
"                                                                                                                                ",
"                                                                                                                                ",
"                                                                                                                                ",
"                                                                                                                                ",
"                                                                                                                                ",
"                                                                                                                                ",
"                                                                                                                                ",
"                                                                                                                                ",
"                                                                                                                                "
};
