/* XPM */
static char *result[] = {
/* columns rows colors chars-per-pixel */
"64 64 13 1 ",
"  c black",
". c #181818",
"X c #222222",
"o c gray15",
"O c #2C2C2C",
"+ c #414141",
"@ c #4C4C4C",
"# c gray31",
"$ c #515151",
"% c #797979",
"& c #8E8E8E",
"* c gray59",
"= c None",
/* pixels */
"======##....========================================....##======",
"======$$XXXX========================================XXXX$$======",
"======$$XXXX========================================XXXX$$======",
"======..XXXX========================================XXXX..======",
"====##XXXXXX========================================XXXXXX##====",
"====..XXXXXX========================================XXXXXX..====",
"====.XXXXXXX========================================XXXXXXX.====",
"====.XXXXXXX========================================XXXXXXX.====",
"==#..XXXXXX&========================================&XXXXXX..#==",
"  #.XXXXXX&&========================================&&XXXXXX.#  ",
"oo#.XXXXXX&&========================================&&XXXXXX.#oo",
"oo#.XXXXXX&&========================================&&XXXXXX.#oo",
"o...XXXX&&&&========================================&&&&XXXX...o",
"o.XXXXXX&&&&========================================&&&&XXXXXX.o",
"o.XXXXXX&&&&========================================&&&&XXXXXX.o",
"o.XXXXXX&&&&========================================&&&&XXXXXX.o",
"o.XXXXXX&&&&========================================&&&&XXXXXX.o",
"+.XXXXXX&&&&========================================&&&&XXXXXX.+",
"%.XXXXXX&&&&========================================&&&&XXXXXX.%",
"%.XXXXXX&&&&========================================&&&&XXXXXX.%",
"%.XXXX@@&&&&========================================&&&&@@XXXX.%",
"#.XXXX@@&&&&========================================&&&&@@XXXX.#",
"#.XXXX@@&&&&========================================&&&&@@XXXX.#",
"#.XXXX@@&&&&========================================&&&&@@XXXX.#",
"#.XXXX@@&&&&========================================&&&&@@XXXX.#",
"#.XX&&@@&&&&========================================&&&&@@&&XX.#",
"#.XX&&@@&&&&========================================&&&&@@&&XX.#",
"#.XX&&@@&&&&========================================&&&&@@&&XX.#",
"#.XX&&@@&&&&========================================&&&&@@&&XX.#",
"#.XX&&@@&&  ========================================  &&@@&&XX.#",
"#.XX&&@@  **========================================**  @@&&XX.#",
"#.XX&   ****========================================****   &XX.#",
"#.X  *******========================================*******  X.#",
"   *******  ========================================  *******   ",
"   *****  &&========================================&&  *****   ",
"   **   &&&&========================================&&&&   **   ",
"     &@@&&&&========================================&&&&@@&     ",
"   &&&@@&&&&========================================&&&&@@&&&   ",
"#.O&&&@@&&&&========================================&&&&@@&&&O.#",
"#.O&&&@@&&&&========================================&&&&@@&&&O.#",
"#.O&&&@@&&&&========================================&&&&@@&&&O.#",
"#.O&&&@@&&&&========================================&&&&@@&&&O.#",
"#.O&&&@@&&&&========================================&&&&@@&&&O.#",
"#.O&&&@@&&&&========================================&&&&@@&&&O.#",
"#.O&&&@@&&&&========================================&&&&@@&&&O.#",
"#.O&&&@@&&&&========================================&&&&@@&&&O.#",
"#.O&&&@@&&&&========================================&&&&@@&&&O.#",
"#.O&&&@@&&&&========================================&&&&@@&&&O.#",
"#.O&&&@@&&&&========================================&&&&@@&&&O.#",
"#.O&&&@@&&&&========================================&&&&@@&&&O.#",
"#.O&&&@@&&&&========================================&&&&@@&&&O.#",
"#.O&&&@@&&&&========================================&&&&@@&&&O.#",
"#.O&&&@@&&  ========================================  &&@@&&&O.#",
"#.O&&&@@  **========================================**  @@&&&O.#",
"#.O&&   ****========================================****   &&O.#",
"#.O  *******========================================*******  O.#",
"   *******  ========================================  *******   ",
"   *****  &&========================================&&  *****   ",
"   **   &&&&========================================&&&&   **   ",
"     &@@&&..========================================..&&@@&     ",
"   &&&@@..============================================..@@&&&   ",
"#.O&&...================================================...&&O.#",
"#.O..======================================================..O.#",
"#..==========================================================..#"
};
