/* XPM */
static char *_573cd18b64747ef9acf1a1385c942b0TxRPHT8C01TEX3NQ[] = {
/* columns rows colors chars-per-pixel */
"64 64 125 2 ",
"   c #0E0E06",
".  c #0D0F08",
"X  c #0E110A",
"o  c #171605",
"O  c #14150C",
"+  c #19190E",
"@  c #161710",
"#  c #161912",
"$  c #1B1C14",
"%  c #211F15",
"&  c #201F18",
"*  c #1F2016",
"=  c #1E2019",
"-  c #222217",
";  c #292515",
":  c #2B2917",
">  c #23231C",
",  c #29261C",
"<  c #27291E",
"1  c #2B2A1D",
"2  c #312F1D",
"3  c #242520",
"4  c #282720",
"5  c #272921",
"6  c #2B2B23",
"7  c #2D2E28",
"8  c #302F24",
"9  c #312F28",
"0  c #2E3026",
"q  c #2F3129",
"w  c #313124",
"e  c #383725",
"r  c #33342B",
"t  c #39372C",
"y  c #36382F",
"u  c #3B3B2E",
"i  c #353631",
"p  c #363931",
"a  c #3B3C33",
"s  c #3E3F39",
"d  c #433F2F",
"f  c #433F32",
"g  c #3E4237",
"h  c #3F423A",
"j  c #434236",
"k  c #494535",
"l  c #4A4937",
"z  c #43433B",
"x  c #49473C",
"c  c #45493D",
"v  c #4A4A3D",
"b  c #514F3D",
"n  c #4E503E",
"m  c #474742",
"M  c #484740",
"N  c #474B41",
"B  c #4B4C43",
"V  c #504F43",
"C  c #4C5144",
"Z  c #4F5249",
"A  c #515143",
"S  c #585442",
"D  c #555846",
"F  c #54544A",
"G  c #595648",
"H  c #56584C",
"J  c #59594A",
"K  c #565650",
"L  c #585751",
"P  c #565B50",
"I  c #5B5C52",
"U  c #605F46",
"Y  c #605B48",
"T  c #605E50",
"R  c #5E604E",
"E  c #5E6053",
"W  c #5E6258",
"Q  c #61604C",
"!  c #6A684E",
"~  c #626152",
"^  c #686555",
"/  c #666856",
"(  c #6A6856",
")  c #616359",
"_  c #686658",
"`  c #63685A",
"'  c #69685A",
"]  c #716C55",
"[  c #706A59",
"{  c #6F715D",
"}  c #747157",
"|  c #72705E",
" . c #676960",
".. c #686A61",
"X. c #706E61",
"o. c #6C7062",
"O. c #6E7369",
"+. c #727261",
"@. c #797565",
"#. c #727369",
"$. c #787669",
"%. c #73796A",
"&. c #7A7969",
"*. c #767B70",
"=. c #7A7B71",
"-. c #827C69",
";. c #807E71",
":. c #7E8072",
">. c #7E8178",
",. c #82846F",
"<. c #838373",
"1. c #898475",
"2. c #838479",
"3. c #898679",
"4. c #86887B",
"5. c #8A8B7B",
"6. c #868980",
"7. c #898A80",
"8. c #8E9084",
"9. c #939485",
"0. c #949489",
"q. c #999A8D",
"w. c #A29E8F",
"e. c #AAAA9A",
"r. c #D4D4C8",
/* pixels */
"> $ O # O O O @ @ # O   @ @ @ $ @ @ . # $ # $ @ & # $ 7 3 # 3 $ $ @ $ O @ @ $ @ & $ $ & $ $ @ > $ $ @ > @ $ > > O @ O     O X , ",
"O w @ = O O . = @ O O O $ > 3 O . $ O @ 5 $ s $ $ $ & $ f 6 7 7 5 9 f 7 7 & 4 + 9 > 3 3 7 5 3 $ 3 > 3 $ $ 4 O @ % 7 7 4 @ O 6 > ",
"< t r = $ 7 & O @ $ 6 7 6 # $ 3 = = = 3 3 3 > 3 9 3 3 r 4 % 9 i 3 $ 3 $ & % $ & 3 & @ $ 3 7 3 3 7 > 9 7 3 $ r 3 @ & % # # j + : ",
"* 1 z 0 > $ @ - > i 7 > $ 6 r 5 6 3 3 & $ 3 7 6 f 9 & 7 3 7 7 m & & 4 & % 9 8 8 r > > & 3 $ 7 3 7 i $ 3 $ 9 3 h @ @ > # < I 1 $ ",
"< r t < k = 9 M i 7 i i 7 6 r $ > 4 , 3 , 6 6 6 5 5 7 a z 5 5 6 > @ f & & % 6 + $ @ & 6 7 & @ $ > 7 5 9 3 5 - > 5 $ @ y a v > * ",
"> 0 z g a t s c a a f f z r i a 6 6 r f 8 4 6 $ 6 7 , 9 & & $ 3 $ 3 7 > , & % % 3 @ % 4 f r 3 , > % r a & & > 6 < = z D u k q - ",
"6 u q j y e N r 9 9 a f > 9 4 4 , r 8 - 7 8 6 , 9 7 i a i a a 9 r 4 9 f i % 6 , 7 - 9 8 s & > 9 , , 9 s r 7 7 3 3 C g c 0 r q O ",
"1 g z v t u j j 9 i 3 7 f 9 a s 7 6 7 & 9 > 8 7 i 9 - r r 9 a a 4 , & 7 & 8 r 1 , - $ 4 > $ > 9 1 6 4 r > 7 $ 6 z z g h g y = e ",
"* 5 q y u 0 v c F 9 z i a i i 9 6 r < 1 r r r i i i 9 a r 9 a i z f i i r 7 7 a > a & , > 9 i a p 6 t r q r 7 C N A j a r s = < ",
"@ y 0 0 r q z z ) L M Z - 9 7 7 6 , 7 r a 8 r 4 3 9 5 f z a a 5 6 f a a q 9 > 7 a r r 7 7 7 a 5 4 7 > r a a N N I F c k u q 6 r ",
"* = r q g u a a ..G L z i a i 9 r 7 4 a i i r r s 9 i a r f i 9 s 7 i m m m a 4 7 i a r i a 5 9 r r p p 7 B z z  .B z 6 e g < # ",
"0 C * i 5 c ` g Z L I F 6 r p a 4 r i 7 9 r 6 4 p 9 i i i 9 a i Z m m 7 a i I s p B f a f B m 9 B a p s s I O.N m Z C a r r 6 < ",
"= r < q q c a s B v ..z L i s h z 7 h i p r 9 i r a 7 s a 8 i 9 i i p s i i i m f i f 5 i m f 9 r 7 p Z N F m c z j P w y C y * ",
"< 0 2 g i N 0 a B I B B I P r i a i p i p i p 7 i i a a a s a 7 7 7 r s z m i i 7 s f x f 9 9 i 9 f Z I Z I r z z F j q j g r q ",
"* 0 e h t j i c v B F m B W F s a s B s f a i i i i p f p r r r i 7 i i 7 9 m i z 9 i r i 9 f z f H G I C A a C j z z r q g 0 - ",
"+ * 1 0 a 7 z v V H V #...I H I m s m a s m f m a s s i f p p a z s p i r h z h s i 5 r i a z f m x B V C a B C x Z u P c g 0 w ",
"; < - j g g A n v W z q ) ` ) G 7.9.9.;.4.w.,.| 1.R &.| &.&.{ o.R ` O.o.o.o.D { R R %.J ` ( ! } B A z ) H Z J J j H y $ N c s < ",
"0 0 0 g e u z v t ' a a H B s H =.' ..I ' X.#.~ ` ..~ W H J ` J C C H W E H Z R J J H A A D C ( I F V P A v B V w I 0 * y 6 + < ",
"5 2 0 0 u u B v N =.I w B P I Z 4...;.&.5.' ..I ' ' +.~ ' ~ E H D H C o.` W ` W R W H &.H A D %.P G V A A v Z C z *.z $ q y t > ",
"$ 1 v u t B i r C F N g h H ..F #.<.q.;.[ Y #.I ) Y =.%.J J A ` Z D F { R C C Z H v H ` E H ~ #.v V ..H N ~ a s c B a 5 < t z < ",
"- t u g u c t u B I v t h j c Z +.~ U q.~ A ~ ~ T J { ' ~ E H W H C R Z / P C W H c E / { H J ` V I I P H F a k c H t - * * * > ",
"$ t q 0 g u h z B $.u B c v I ) %.#.o.0.) ..H B T #.J ) ) H Q ` W C o.H J C J E E J E D J ` P { v I F V F B B B g o.2 q < 1 t t ",
"w 0 0 z 0 v N j v ` N B I v F ..5.$.) &.+.) ' <.~ H W ' +.' H ~ C E D W J n C / R A E ` ) J D Q I F C ) N H Z v j I g r j < 0 g ",
"1 5 6 v w q g E a 8 v A c a c W #.b ` ) N H W #.J J J ~ A R J [ R D H n J C J J R ' Q C H ~ ~ | G F B ) k a c ) r < e y < $ * q ",
"- * q 1 g 6 g C v v v J I r Z I r.~ ' %.o.2.<.:.:.` J Y ~ &.' 4.R Q J W E H R / ( ' T ~ Y ^ ( ,.A z Z v H g B G k j e b u X < 0 ",
"* 1 r : y a c v H a v J z P C B &...#.%...&.=.) W ) T ' [ ^ +.;.Q / J ' J Q ' Q +.b [ ~ [ ' ] | v C F v Z B B V B y u g 1 g < - ",
"% r r u u g z A I u A u v C C N #.#.=.0.N ) %.` I ) J [ ^ ^ T $.J ' J D Y S ) Y ' Y G ^ ' T ^ -.v I H Z C B B P Z w g - 1 0 < * ",
"< g q = p g a v A C A F F z =.N 0.5.8. .+.#.~ ` F *.+.o.~ W ' X.Q [ ( ' ( Y ^ J ^ Y ~ / @.[ ~ @.F ^ Z z B F z A B x z y y = Z * ",
": : t 7 w g N c s ` P p F F Z z &.&.v ( 2.%.o.C P ` ` H 4.+.~ &.' ' =.=.( Y T G Y ' ' $.~ S Q @.S b F V v C Z C y R h < g r < # ",
": ; 2 p r < v A Z F B z C P a z ' &.7.%.4...:.H W E H E >.#.) T ' T +.@.J $.Y ' Y ~ Y ' &.~ T ^ F b b Z C g C J N C g 6 0 y O O ",
": 8 - w a y c v A V Z A F c z ' e.C J J ~  .o.o.o.o.W o.H o.&.2.[ _ ' X.T ~ [ ~ ^ ' ' T ' J T &.F G f V F h C A c v g e r < + g ",
"+ : : 1 u a g C H B F I C v g / 1.' ' J #.~ J 4.*.:.W N W ` 2.` ' _ #.Y ~ -.@.[ ' $.Y T J Q ' 1.k V x B C v c J C z j g g = * e ",
"+ 1 q w q < a G I H v G B A u j R J A ~ ' D n W o.E I ) E ~ F <.3.' X.G ' [ ' ( $.' ~ I W J ' q.l F A v B a z E D B u k 7 w o o ",
"% 0 6 = t a z J V A V A G A G v Q S ` n &.~ ( ~ J ' ~ ~ ~ ` ..+.^ Y @.X.T X.^ ~ P <.J ~ ' J ` &.c F N z B v v ~ x B j t t 8 w + ",
"; ; e - - g j x v ) I A P I F V ( n j 3.Y ~ ' ~ O.~ +.J ` ..+...[ X.;.;.^ ' Q J F P ' ..` v ' &.V b S j u C v V j J v t g a 6 ; ",
"> 2 : * 0 j v v v ^ V V B ^ j B ( n A J ~ C W H F x H J ....) ) G ^ ^ 1.' ' ) I Q ' o...' ..~ #.B J v p z D A V j I j t w j $ * ",
"+ v - 6 a < v G v T I a T I F j ( E E n 4.o.F F W H O.2.o.E ~ ` ) ' ;.' ` H ~ A E ' +.E O.O.W o.c X.j B A t A I j G v : j u 2 + ",
"< j t - a < B v V V x V b B I v / E D C H N o.o.` ' ` :.o...' ` ..[ ^ J ~ J ' A W P ) E E W J %.F ..F j F a F A x v a e w 8 r + ",
"1 u 0 1 : 8 t x V x v G H Z C z ' R H l E P I W %.` ` ..` ) +.+.&.' +.) ' E W J ` o.J W ~ H #.5.G T A z j u j A x j u u t 0 6 O ",
"+ w j j u , d j F v G G v A A Z ' o.E C W ` E c :.O.E ..' #.7.4.~ +.Y J ' / o.^ =.E R I D J ` 5.x H ) ^ A r k l B j j j < 0 5 > ",
": < 2 2 8 e f x F V B J x z N z o.N E N C Z P ` +. ...4.#.O.o.' ' / / T T ' ^ ( ` I A ~ E E E &.G V b b v x x S B x a z w > > + ",
": j w x 8 8 x v x B F V B B c h W Z Z g W Z R W ' W #.=. ...o.5.G ~ ' Y ^ @.~ ' ` ` A ' W A | +.V _ V T x a V V j z x t 6 6 - # ",
"% S ; r u 8 x j k F F ) m T Z s R C E N C :.W W +.I #.6.o.W ~ E ' ^ [ @.[ H T G ' ~ Q ' ..~ ) ( b $.k F S f V v p V j v < g < X ",
"+ e ; - 8 e x u x F G F V ..B s H P C D >.R R W J W o.>.' E F J T ^ ' @.[ T T T Y ) ^ | ' ~ A +.x T k j j l V j j V k a t C - X ",
"; d t 8 d f j j G G S S C j C g ' N / / %.W R W E W ' :.W C B ' G Y ^ ( <.^ X.U ' ^ [ &.$.^ J ^ V ^ F x G V v v b b j d q * 1 X ",
"- u 6 1 8 e u v k S j G v C C v o.D E / ` { H / ~ ) W 4.9.F ) T T T &.~ ^ X.X.X.' ( / | ~ ' ^ =.V ) V x v l j A d v e g 1 2 < * ",
"< a < : u w u B S V v I v F C z { E J W E H P ' o.) ..=.#.)  .X.I I X.G T ~ ^ [ @.J ' W ' ^ ) o.G ) x b V a j Z x x u h w e < # ",
"w w y j k r z A j u B ' A u c C :.' o.' ` ' &.1.+.+...' ( ` _ =.#.&.=.^ ' +.] -.-.1.1.:.<.&.4.1.I G L J G j B F d e u C 0 + * * ",
"h a a J 0 0 z w c Z j x v g v j i r 7 i i i p i f i s m s i s s a 9 f 9 9 i a r s a p s i a r s X.) T =.N g N u s N e e < * - + ",
"6 u a z y 1 u g C N z C Z j N 6 3 i 6 7 h a K i i i a i L m m m z m L M m a f 9 m p a h z m s i s ) I T C a k z c z r r p - = 0 ",
"1 u 6 t 2 g g r C C N c c c r a i i i i i a i p m a i m f i z Z a 9 a 9 i 9 r a a i 7 7 p s a i f a B Z j v v a c c r q < : * r ",
"w 0 j > Z C r g a C a P h a z s a a a 9 i a s f K a a f i z s L 9 i a r i f z f z a i i a i s a m f i m ) ) g c r c 0 g * < r X ",
"w v B a z < r 0 z m V T p a c r r a r a r f a r 9 i f m F a a i 9 4 Z 9 9 9 a , 3 5 9 a a r 4 7 7 s s s I r a t g g g v < R 2 X ",
"< g , h r e c e j Z T B V p s z r r f M a r r 6 i i r i 6 7 > i 4 7 a 8 8 8 & 8 7 & 7 9 V a 7 9 7 3 f m 8 c C u e x C * 0 c * < ",
"e t a N < - j t a c f M 4 i 7 7 7 i 9 , 8 r 9 7 i 9 f s a s f i a 7 9 z a - 9 8 9 4 r r z > 6 r 7 4 a f i r c a r g 0 e 0 6 0 = ",
"r q v H < q r u J p 4 r z i f z r 9 9 , i 5 r 9 i i 4 a i 9 z f 8 8 5 9 > 9 a 8 6 , & 8 4 & , u 8 8 6 i 6 7 > j C u y e J e q 0 ",
"1 t a u w > r z B 3 s q r 7 r 6 - r - , 7 8 r r 7 r 7 i 9 9 i 9 a i 9 7 7 6 4 r & 9 $ & & 8 7 r r > r 8 7 7 , 7 c H f T z f 8 a ",
"w t r 0 1 6 c 9 r 6 z B % 7 6 3 > - 6 7 i 6 8 > & 8 > a f r r > & a i i 6 7 & 4 i 7 9 4 4 4 i > > 6 $ 7 t p r 7 6 v a ..a z r $ ",
"1 z 2 r 6 < 7 a q r 6 i 6 7 7 3 6 3 $ r 6 4 6 6 9 6 q 7 7 9 7 4 i 5 9 s s i r & & 4 9 4 4 7 & > 4 6 7 7 3 i 7 6 < 6 v T v x 0 6 ",
"O k - u 6 > 6 r r 3 $ 3 $ > 5 q @ > 3 & & > # $ 5 $ 5 3 & & 5 7 f i 9 > 3 3 F r 7 a i 6 r a a > a 4 6 r 7 r s i > > 6 / V S u u ",
"> 1 0 1 4 7 7 4 3 6 7 3 @ = 7 7 7 > 7 > 7 $ $ 3 $ 3 > 5 , & & & 5 $ 3 7 > & 3 7 7 & 7 O > 8 7 % & @ 7 3 5 3 # = = = $ $ V H % , ",
"+ x q 5 - 7 - - 3 3 s = $ 3 $ = 5 & & $ 3 $ 3 $ > = 4 , > 5 3 # # # = 5 7 9 $ > $ 4 6 8 , % % & $ 3 3 i - O = = = # $ 5 r B 8 + ",
"$ 6 * < & & > $ $ > $ > 7 3 5 3 3 3 9 5 3 $ $ $ $ $ & > $ # # # $ # $ $ @ # 7 $ 4 # + % & + 4 4 5 $ O $ 5 $ = 3 = $ $ 3 $   8 6 ",
"; $ $ > @ @ $ 7 > 6 3 = 5 $ $ > 5 > 3 $ 3 5 3 5 $ $ > $ 3 $ $ = 3 = $ @ @ 3 3 3 & +   @ # $ , & $ . @ O @ O # # 5 # $ X @ O O f "
};
