/* XPM */
static char *result[] = {
/* columns rows colors chars-per-pixel */
"64 64 6 1 ",
"  c #1C2B2D",
". c #1F6F8B",
"X c #99A8B2",
"o c #E6D5B8",
"O c white",
"+ c None",
/* pixels */
"++++++++++++++++++++++++++++++++++++++++++++++++++++++++++++++++",
"++++++++++++++++++++++++++++++++++++++++++++++++++++++++++++++++",
"++++++++++++++++++++++++++++++++++++++++++++++++++++++++++++++++",
"+++++++++++++++++++++++OOOOOOOOOOO++++++++++++++++++++++++++++++",
"+++++++++++++++++++++OO           OO++++++++++++++++++++++++++++",
"++++++++++++++++++++O  ooooooooooo  O+++++++++++++++++++++++++++",
"+++++++++++++++++++O ooooooooooooooo O++++++++++++++++++++++++++",
"++++++++++++++++++O ooooooooooooooooo O+++++++++++++++++++++++++",
"+++++++++++++++++O ooooooooooooooooooo O++++++++++++++++++++++++",
"+++++++++++++++++ ooooooooooooooooooooo O+++++++++++++++++++++++",
"+++++++++++OOOOOO ooooooooooooooooooooo O+++++++++++++++++++++++",
"+++++++++++O     ooooooooooooooooooooooo O++++++++++++++++++++++",
"+++++++++++O oooo oooooooooooooooooooooo O++++++++++++++++++++++",
"++++++++++++  oooo ooooooooooooooooooooo O++++++++++++++++++++++",
"++++++++++++O ooooo ooooooooooooooooooooo O+++++++++++++++++++++",
"++++++++++++O ooooo ooooooooo    ooooo    O+++++++++++++++++++++",
"+++++++++++++O ooooo oooooooo    ooooo     O++++++++++++++++++++",
"+++++++++++++O ooooo ooooooo  X   ooo  X   O++++++++++++++++++++",
"+++++++++++++O oooooo oooooo      ooo      O++++++++++++++++++++",
"++++++++++++++O oooooooooooo      ooo      O++++++++++++++++++++",
"++++++++++++++O  oooooooooooo    Xoooo     O++++++++++++++++++++",
"++++++++++++++O o  oooooooooo    Xoooo    O+++++++++++++++++++++",
"+++++++++++++++O XXoooooooooooXXXooooooXX O+++++++++++++++++++++",
"+++++++++++++++O oooooooooooooooooooooooo O+++++++++++++++++++++",
"+++++++++++++++O oooooooooooooooooooooooo O+++++++++++++++++++++",
"++++++++++++++++O oooooooooooooooooooooo O++++++++++++++++++++++",
"++++++++++++++++O oooooooooooooooooooooo O++++++++++++++++++++++",
"++++++++++++++OOOO ooooooooooooo      oo OOO++++++++++++++++++++",
"+++++++++++++O              ooooo oo oo     O+++++++++++++++++++",
"+++++++++++++O ............ oooooooooo      O+++++++++++++++++++",
"+++++++++++++O ............ ooooooooo      O++++++++++++++++++++",
"++++++++++++++O ........... oooooooo     OO+++++++++++++++++++++",
"++++++++++++++O .......... oooooooo      O++++++++++++++++++++++",
"+++++++++++++++O .........              O+++++++++++++++++++++++",
"+++++++++++++++O .........              O+++++++++++++++++++++++",
"+++++++++++++++O .........            . O+++++++++++++++++++++++",
"++++++++++++++++O .........          .. O+++++++++++++++++++++++",
"++++++++++++++++O .   ......        ... O+++++++++++++++++++++++",
"+++++++++++++++++O ... .....       .... O+++++++++++++++++++++++",
"+++++++++++++++++ .... ......     .....  O++++++++++++++++++++++",
"++++++++++++++++ ..... .......   ...... . O+++++++++++++++++++++",
"++++++++++++++++ ..... ........ ....... .. O++++++++++++++++++++",
"+++++++++++++++ ...... ................ ..o O+++++++++++++++++++",
"+++++++++++++++ ...... ................ .oo O+++++++++++++++++++",
"+++++++++++++++ ..... ................. oo O++++++++++++++++++++",
"+++++++++++++++ ooo.. ................. oo O++++++++++++++++++++",
"+++++++++++++++ oooo ..................   O+++++++++++++++++++++",
"+++++++++++++++ ooo ................... OO++++++++++++++++++++++",
"++++++++++++++++    ................... O+++++++++++++++++++++++",
"++++++++++++++++++O ................... O+++++++++++++++++++++++",
"++++++++++++++++++O ................... O+++++++++++++++++++++++",
"++++++++++++++++++O ................... O+++++++++++++++++++++++",
"++++++++++++++++++O .......... ........ O+++++++++++++++++++++++",
"++++++++++++++++++O ......... ......... O+++++++++++++++++++++++",
"++++++++++++++++++O ........ .......... O+++++++++++++++++++++++",
"++++++++++++++++++O ....... .......... O++++++++++++++++++++++++",
"++++++++++++++++++O ....... ......... O+++++++++++++++++++++++++",
"++++++++++++++++++O .....XX ........ O++++++++++++++++++++++++++",
"++++++++++++++++++O  XXXXX          O+++++++++++++++++++++++++++",
"+++++++++++++++++++OO     OOOOOOOOOO++++++++++++++++++++++++++++",
"+++++++++++++++++++++OOOOO++++++++++++++++++++++++++++++++++++++",
"++++++++++++++++++++++++++++++++++++++++++++++++++++++++++++++++",
"++++++++++++++++++++++++++++++++++++++++++++++++++++++++++++++++",
"++++++++++++++++++++++++++++++++++++++++++++++++++++++++++++++++"
};
