/* XPM */
static char *result[] = {
/* columns rows colors chars-per-pixel */
"64 64 6 1 ",
"  c #1C2B2D",
". c #1F6F8B",
"X c #99A8B2",
"o c #E6D5B8",
"O c white",
"+ c None",
/* pixels */
"++++++++++++++++++++++++++++++++++++++++++++++++++++++++++++++++",
"++++++++++++++++++++++++++++++++++++++++++++++++++++++++++++++++",
"++++++++++++++++++++++++++++++++++++++++++++++++++++++++++++++++",
"++++++++++++++++++++++++++++++++++++++++++++++++++++++++++++++++",
"+++++++++++++++++++++++OOOOOOOOOOO++++++++++++++++++++++++++++++",
"+++++++++++++++++++++OO           OO++++++++++++++++++++++++++++",
"++++++++++++++++++++O  ooooooooooo  O+++++++++++++++++++++++++++",
"+++++++++++++++++++O ooooooooooooooo O++++++++++++++++++++++++++",
"++++++++++++++++++O ooooooooooooooooo O+++++++++++++++++++++++++",
"+++++++++++++++++O ooooooooooooooooooo O++++++++++++++++++++++++",
"+++++++++++++OOOO ooooooooooooooooooooo O+++++++++++++++++++++++",
"++++++++++++O   O ooooooooooooooooooooo O+++++++++++++++++++++++",
"+++++++++++O ooo ooooooooooooooooooooooo O++++++++++++++++++++++",
"+++++++++++O oooo oooooooooooooooooooooo O++++++++++++++++++++++",
"++++++++++++O oooo ooooooooooooooooooooo O++++++++++++++++++++++",
"++++++++++++O ooooo ooooooooooooooooooooo O+++++++++++++++++++++",
"++++++++++++O ooooo ooooooooo    ooooo    O+++++++++++++++++++++",
"+++++++++++++O ooooo oooooooo    ooooo     O++++++++++++++++++++",
"+++++++++++++O ooooo ooooooo  X   ooo  X   O++++++++++++++++++++",
"+++++++++++++O oooooo oooooo      ooo      O++++++++++++++++++++",
"++++++++++++++O oooooooooooo      ooo      O++++++++++++++++++++",
"++++++++++++++O  oooooooooooo    Xoooo     O++++++++++++++++++++",
"++++++++++++++O o  oooooooooo    Xoooo    O+++++++++++++++++++++",
"+++++++++++++++O XXoooooooooooXXXooooooXX O+++++++++++++++++++++",
"+++++++++++++++O oooooooooooooooooooooooo O+++++++++++++++++++++",
"+++++++++++++++O oooooooooooooooooooooooo O+++++++++++++++++++++",
"++++++++++++++OOO oooooooooooooooooooooo O++++++++++++++++++++++",
"+++++++++++++O              oooooooooooo    O+++++++++++++++++++",
"+++++++++++++O ............ oooo      oo    O+++++++++++++++++++",
"+++++++++++++O ............ ooooo oo oo    O++++++++++++++++++++",
"++++++++++++++O ........... oooooooooo   OO+++++++++++++++++++++",
"++++++++++++++O .......... oooooooooo    O++++++++++++++++++++++",
"+++++++++++++++O ......... ooooooooo    O+++++++++++++++++++++++",
"+++++++++++++++O ......... oooooooo     O+++++++++++++++++++++++",
"+++++++++++++++O .........            . O+++++++++++++++++++++++",
"++++++++++++++++O .........          .. O+++++++++++++++++++++++",
"++++++++++++++++O ..........        ... O+++++++++++++++++++++++",
"+++++++++++++++++O .........       .... O+++++++++++++++++++++++",
"+++++++++++++++++O    .......     .....  O++++++++++++++++++++++",
"+++++++++++++++++O ... .......   ...... . O+++++++++++++++++++++",
"+++++++++++++++++O ... ........ ....... .. O++++++++++++++++++++",
"++++++++++++++++O ..... ............... ... O+++++++++++++++++++",
"++++++++++++++++O ..... ............... ...o O++++++++++++++++++",
"++++++++++++++++O ..... ............... ..oo O++++++++++++++++++",
"++++++++++++++++O ..... ............... .ooo O++++++++++++++++++",
"++++++++++++++++O ..... ...............  ooo O++++++++++++++++++",
"++++++++++++++++O ..... ............... O   O+++++++++++++++++++",
"++++++++++++++++O ooooo ............... OOOO++++++++++++++++++++",
"+++++++++++++++++O ooo ................ O+++++++++++++++++++++++",
"+++++++++++++++++O ooo ................ O+++++++++++++++++++++++",
"++++++++++++++++++O   ................. O+++++++++++++++++++++++",
"++++++++++++++++++O ......... ......... O+++++++++++++++++++++++",
"++++++++++++++++++O ........ .......... O+++++++++++++++++++++++",
"+++++++++++++++++++O ....... ......... O++++++++++++++++++++++++",
"+++++++++++++++++++O ....... ........ O+++++++++++++++++++++++++",
"+++++++++++++++++++O .......         O++++++++++++++++++++++++++",
"+++++++++++++++++++O ....... OOOOOOOO+++++++++++++++++++++++++++",
"+++++++++++++++++++O ....XXX +++++++++++++++++++++++++++++++++++",
"+++++++++++++++++++O .XXXX  O+++++++++++++++++++++++++++++++++++",
"++++++++++++++++++++O     OO++++++++++++++++++++++++++++++++++++",
"+++++++++++++++++++++OOOOO++++++++++++++++++++++++++++++++++++++",
"++++++++++++++++++++++++++++++++++++++++++++++++++++++++++++++++",
"++++++++++++++++++++++++++++++++++++++++++++++++++++++++++++++++",
"++++++++++++++++++++++++++++++++++++++++++++++++++++++++++++++++"
};
