/* XPM */
static char *collect0021675243439[] = {
/* columns rows colors chars-per-pixel */
"64 64 14 1 ",
"  c None",
". c black",
"X c #6F5E00",
"o c #817414",
"O c #D07B1D",
"+ c #8B801D",
"@ c #888A18",
"# c #B39D13",
"$ c #98933D",
"% c #B6A84D",
"& c #E8A547",
"* c #C2EA59",
"= c #D5C567",
"- c white",
/* pixels */
"                                                                ",
"                                                                ",
"                                                                ",
"                                                                ",
"                                                                ",
"                                                                ",
"                                                                ",
"                                                                ",
"                                                                ",
"                                                                ",
"                                                                ",
"                                                                ",
"                                                                ",
"                                                                ",
"                 -------------------------                      ",
"                --.......................--                     ",
"                -.======.%%%%%%%%%%%%%%%$.-                     ",
"                -.======.%%%%%%%%%%%%%%%$.-                     ",
"                -.-=====.%%XXXXXXXXXXXX%$.-                     ",
"                -.======.%%XooooooooooX%$.-                     ",
"                -.==XX==.%%Xo++++++++oX%$.-                     ",
"                -.=X==X%.%%-o++*****+oX%$.-                     ",
"                -.=X=%X%.%---++**#**+oX-$.-                     ",
"                -.=X%%X%.%%-o++*###*+o---.-                     ",
"                -.=X$$X%.%%Xo++**#**+oX-$.-                     ",
"                -.==XX%%.%%Xo++*****+oX%$.-                     ",
"                -.==%%%=.%%XooooooooooX%$.-                     ",
"                -.======.%%XXXXXXXXXXXX%$.-                     ",
"                -.======.%%%%%-%%%%%%%%$$.-                     ",
"                -.======.$$$$---$$$$$$$$$.-                     ",
"                --....XX......-..........--                     ",
"                 ----.&O.==%%%%XXX$.------                      ",
"                    -.&O.X=%%XX=X@X.-                           ",
"                    -.XX=%XXX==%X@X.-                           ",
"                    -.=X%$X===%$X@X.-                           ",
"                    -.=X$$X===%$X@X.-                           ",
"                    -.=%.XXXX==%X@X.-                           ",
"                    -.=%.%=%%XX=X@X.-                           ",
"                    -.=%.==%%%%XXX$.-                           ",
"                    -.=%.==-%%%$$$%.-                           ",
"                    -.=%.=---%%%-%%.-                           ",
"                    --...==-%%%%%%%.-                           ",
"                     ---.==%X%%%%%%.-                           ",
"                       -.==%X$$$$%%.-                           ",
"                       -.==%.....=%.-                           ",
"                       -.==%.---.=%.-                           ",
"                       -.==%.- -.=$.-                           ",
"                       -.==%.- -.$$.-                           ",
"                       -.....- -....-                           ",
"                       ------- ------                           ",
"                                                                ",
"                                                                ",
"                                                                ",
"                                                                ",
"                                                                ",
"                                                                ",
"                                                                ",
"                                                                ",
"                                                                ",
"                                                                ",
"                                                                ",
"                                                                ",
"                                                                ",
"                                                                "
};
