/* XPM */
static char *collect0011675243438[] = {
/* columns rows colors chars-per-pixel */
"64 64 14 1 ",
"  c None",
". c black",
"X c #A18700",
"o c #AD960D",
"O c #B39D13",
"+ c #B1A410",
"@ c #BCAA28",
"# c #E09A13",
"$ c #CFB832",
"% c #F0B52F",
"& c #D7E33A",
"* c #E4CA44",
"= c #FFFBE9",
"- c white",
/* pixels */
"                                                                ",
"                                                                ",
"                                                                ",
"                                                                ",
"                                                                ",
"                                                                ",
"                                                                ",
"                                                                ",
"                                                                ",
"                                                                ",
"                                                                ",
"                                                                ",
"                                                                ",
"                                                                ",
"                 -------------------------                      ",
"                --.......................--                     ",
"                -.******X$$$$$$$$$$$$$$$@.-                     ",
"                -.******X$$$$$$$$$$$$$$$@.-                     ",
"                -.******X$$XXXXXXXXXXXX$@.-                     ",
"                -.******=$$XooooooooooX$@.-                     ",
"               --=**XX*===$XoOOOOOOOOoX$@.-                     ",
"               -===X**X$=$$Xo-O&&&&&OoX$@.-                     ",
"               --=*X*$X$X$$X---&&O&&OoX$@.-                     ",
"                -.*X$$X$X$$Xo-O&OOO&Oo-$@.-                     ",
"                -.*X@@X$X$$XoOO&&O&&O---@.-                     ",
"                -.**XX$$X$$XoOO&&&&&Oo-$@.-                     ",
"                -.**$$$*X$$XooooooooooX$@.-                     ",
"                -.******X$$XXXXXXXXXXXX$@.-                     ",
"                -.******X$$$$$$$$$$$$$$@@.-                     ",
"                -.******X@@@@@@@@@@@@@@@-.-                     ",
"                --.......................--                     ",
"                 ----.%#.**$$$$XXX@.------                      ",
"                    -.%#.X*$$XX*X+X.-                           ",
"                    -.XX*$XXX**$X+X.-                           ",
"                    -.*X$@X***$@X+X.-                           ",
"                    -.*X@@X***$@X+X.-                           ",
"                    -.*$.XXXX**$X+X.-                           ",
"                    -.*$.$*$$XX*X+X.-                           ",
"                    -.*$.**$$$$X=X@.-                           ",
"                    -.*$.**$$$$===$.-                           ",
"                    -.*$.*-$$$$$=$$.-                           ",
"                    --...**$$$$$$$$.-                           ",
"                     ---.**$.$$$$$$.-                           ",
"                       -.**$.@@@@$$.-                           ",
"                       -.**$.....*$.-                           ",
"                       -.**$.---.*$.-                           ",
"                       -.**$.- -.*@.-                           ",
"                       -.**$.- -.@@.-                           ",
"                       -.....- -....-                           ",
"                       ------- ------                           ",
"                                                                ",
"                                                                ",
"                                                                ",
"                                                                ",
"                                                                ",
"                                                                ",
"                                                                ",
"                                                                ",
"                                                                ",
"                                                                ",
"                                                                ",
"                                                                ",
"                                                                ",
"                                                                "
};
