/* XPM */
static char *collect0031675243439[] = {
/* columns rows colors chars-per-pixel */
"64 64 17 1 ",
"  c None",
". c black",
"X c #3A3200",
"o c #4C4600",
"O c #636118",
"+ c #5C6E20",
"@ c #6F7024",
"# c #737A54",
"$ c #BE5827",
"% c #7F874C",
"& c #A4A15F",
"* c #9B9769",
"= c #E09261",
"- c #B3F36F",
"; c #C6BE8D",
": c #CBC580",
"> c white",
/* pixels */
"                                                                ",
"                                                                ",
"                                                                ",
"                                                                ",
"                                                                ",
"                                                                ",
"                                                                ",
"                                                                ",
"                                                                ",
"                                                                ",
"                                                                ",
"                                                                ",
"                                                                ",
"                                                                ",
"                 >>>>>>>>>>>>>>>>>>>>>>>>>                      ",
"                >>.......................>>                     ",
"                >.::::::o&&&&&&&&&&&&&&&%.>                     ",
"                >.::::::o&&&&&&&&&&&&&&&%.>                     ",
"                >.::::::o&&oooooooooooo&%.>                     ",
"                >.::::::o&&oOOOOOOOOOOo&%.>                     ",
"                >.::oo::o&&oO@>@@@@@@Oo&%.>                     ",
"                >.:o::o&o&&oO@@----->Oo&%.>                     ",
"                >.:o:&>&o&&oO@@--@--@Oo&%.>                     ",
"                >.:o&&o&o&&oO@@-@@@-@Oo&%.>                     ",
"                >.:o%%o&o&&oO@@--@--@Oo&%.>                     ",
"                >.::oo&&o&&oO@@-----@Oo&%.>                     ",
"                >.::&&&:o&&oOOOOOOOOOOo&%.>                     ",
"                >.::::::o&&oooooooooooo&%.>                     ",
"                >.::::::o&&&&&&&>&&&&&&%%.>                     ",
"                >.::::>:o%%%%%%%%%%%%%%%%.>                     ",
"                >>.......................>>                     ",
"                 >>>>.=$.;;****XXX#.>>>>>>                      ",
"                    >.=$.X;**XX;X+X.>                           ",
"                    >.XX;*XXX;;*X+X.>                           ",
"                    >.;X*#X;;;*#X+X.>                           ",
"                    >.;X##X;;;*#X+X.>                           ",
"                    >.;*.XXXX;;*X+X.>                           ",
"                    >.;*.*;**XX;X+X.>                           ",
"                    >.;*.;;>***XXX#.>                           ",
"                    >.;*.;;****###*.>                           ",
"                    >.;*.;;******>*.>                           ",
"                    >>...;;*****>>>.>                           ",
"                     >>>.;;*X****>*.>                           ",
"                       >.;;*X####**.>                           ",
"                       >.;;*.....;*.>                           ",
"                       >.;;*.>>>.;*.>                           ",
"                       >.;;*.> >.;#.>                           ",
"                       >.;;*.> >.##.>                           ",
"                       >.....> >....>                           ",
"                       >>>>>>> >>>>>>                           ",
"                                                                ",
"                                                                ",
"                                                                ",
"                                                                ",
"                                                                ",
"                                                                ",
"                                                                ",
"                                                                ",
"                                                                ",
"                                                                ",
"                                                                ",
"                                                                ",
"                                                                ",
"                                                                "
};
