/* XPM */
static char *hurt0021675243439[] = {
/* columns rows colors chars-per-pixel */
"64 64 13 1 ",
"  c None",
". c black",
"X c #500000",
"o c #661B18",
"O c #6E361D",
"+ c #722A23",
"@ c #C62323",
"# c #82404B",
"$ c #A65A5D",
"% c #E45656",
"& c #CC7D7D",
"* c #B4A96C",
"= c white",
/* pixels */
"                                                                ",
"                                                                ",
"                                                                ",
"                                                                ",
"                                                                ",
"                                                                ",
"                                                                ",
"                                                                ",
"                                                                ",
"                                                                ",
"                                                                ",
"                                                                ",
"                                                                ",
"                                                                ",
"                                                                ",
"                                                                ",
"               ============================                     ",
"              ==..........................==                    ",
"              =.&&&&&&&X$$$$$$$$$$$$$$$$$#.=                    ",
"              =.&&&&&&&X$$$$$$$$$$$$$$$$$#.=                    ",
"              =.&&&&&&&X$$XXXXXXXXXXXXXX$#.=                    ",
"              =.&&&&&&&X$$XooooooooooooX$#.=                    ",
"              =.&&XXX&&X$$Xo**++++++**oX$#.=                    ",
"              =.&X&&&X$X$$Xo++**++**++oX$#.=                    ",
"              =.&X$$$X$X$$Xo++++**++++oX$#.=                    ",
"              =.&X###X$X$$Xo++**++**++oX$#.=                    ",
"              =.&&XXX$$X$$Xo**++++++**oX$#.=                    ",
"              =.&&$$$$&X$$XooooooooooooX$#.=                    ",
"              =.&&&&&&&X$$XXXXXXXXXXXXXX$#.=                    ",
"              =.&&&&&&&X$$$$$$$$$$$$$$$$##.=                    ",
"              =.&&&&&&&X##################.=                    ",
"              ==..........................==                    ",
"               =======...&&$$$$$XXX.=======                     ",
"                    =.%@.XX$$XXX&XO.=                           ",
"                    =.%@.&$XXX&&$XO.=                           ",
"                    =.XX.$#X&&&$#XO.=                           ",
"                    =.&$.##X&&&$#XO.=                           ",
"                    =.&$.XXXXX&&$XO.=                           ",
"                    =.&$.&&##XXX&XO.=                           ",
"                    =.&$.&&$$###XXX.=                           ",
"                    =.&$.&&$$$$####.=                           ",
"                    =.&$.&&$$$$$$$$.=                           ",
"                    =.&$.&&$$$$$$$$.=                           ",
"                    ==...&&$X$$$$$$.=                           ",
"                     ===.&&$X####$$.=                           ",
"                       =.&&$.....&$.=                           ",
"                       =.&&$.===.&#.=                           ",
"                       =.&&$.= =.##.=                           ",
"                       =.....= =....=                           ",
"                       ======= ======                           ",
"                                                                ",
"                                                                ",
"                                                                ",
"                                                                ",
"                                                                ",
"                                                                ",
"                                                                ",
"                                                                ",
"                                                                ",
"                                                                ",
"                                                                ",
"                                                                ",
"                                                                ",
"                                                                "
};
