/* XPM */
static char *hurt0011675243439[] = {
/* columns rows colors chars-per-pixel */
"64 64 13 1 ",
"  c None",
". c black",
"X c #8A0000",
"o c #991210",
"O c #A01C18",
"+ c #9E2413",
"@ c #AB2B32",
"# c #D81717",
"$ c #C33D3E",
"% c #ED3A3A",
"& c #DD5454",
"* c #CD7149",
"= c white",
/* pixels */
"                                                                ",
"                                                                ",
"                                                                ",
"                                                                ",
"                                                                ",
"                                                                ",
"                                                                ",
"                                                                ",
"                                                                ",
"                                                                ",
"                                                                ",
"                                                                ",
"                                                                ",
"                                                                ",
"                 =========================                      ",
"                ==.......................==                     ",
"                =.&&&&&&X$$$$$$$$$$$$$$$@.=                     ",
"                =.&&&&&&X$$$$$$$$$$$$$$$@.=                     ",
"                =.&&&&&&X$$XXXXXXXXXXXX$@.=                     ",
"                =.&&&&&&X$$XooooooooooX$@.=                     ",
"                =.&&XX&&X$$XoOOOOOOO*oX$@.=                     ",
"                =.&X&&X$X$$XoO*OOO*OOoX$@.=                     ",
"                =.&X&$X$X$$XoOOO*OOOOoX$@.=                     ",
"                =.&X$$X$X$$XoOOOOOOOOoX$@.=                     ",
"                =.&X@@X$X$$XoOOOOOO*OoX$@.=                     ",
"                =.&&XX$$X$$Xo*OOOOOO*oX$@.=                     ",
"                =.&&$$$&X$$XooooooooooX$@.=                     ",
"                =.&&&&&&X$$XXXXXXXXXXXX$@.=                     ",
"                =.&&&&&&X$$$$$$$$$$$$$$@@.=                     ",
"                =.&&&&&&X@@@@@@@@@@@@@@@@.=                     ",
"                ==.......................==                     ",
"                 ====.%#.&&$$$$XXX@.======                      ",
"                    =.%#.X&$$XX&X+X.=                           ",
"                    =.XX&$XXX&&$X+X.=                           ",
"                    =.&X$@X&&&$@X+X.=                           ",
"                    =.&X@@X&&&$@X+X.=                           ",
"                    =.&$.XXXX&&$X+X.=                           ",
"                    =.&$.$&$$XX&X+X.=                           ",
"                    =.&$.&&$$$$XXX@.=                           ",
"                    =.&$.&&$$$$@@@$.=                           ",
"                    =.&$.&&$$$$$$$$.=                           ",
"                    ==...&&$$$$$$$$.=                           ",
"                     ===.&&$X$$$$$$.=                           ",
"                       =.&&$X@@@@$$.=                           ",
"                       =.&&$.....&$.=                           ",
"                       =.&&$.===.&$.=                           ",
"                       =.&&$.= =.&@.=                           ",
"                       =.&&$.= =.@@.=                           ",
"                       =.....= =....=                           ",
"                       ======= ======                           ",
"                                                                ",
"                                                                ",
"                                                                ",
"                                                                ",
"                                                                ",
"                                                                ",
"                                                                ",
"                                                                ",
"                                                                ",
"                                                                ",
"                                                                ",
"                                                                ",
"                                                                ",
"                                                                "
};
