/* XPM */
static char *hurt0041675243439[] = {
/* columns rows colors chars-per-pixel */
"64 64 12 1 ",
"  c None",
". c black",
"X c #212722",
"o c #323C33",
"O c #2D4E29",
"+ c #4A5D6C",
"@ c #AC3232",
"# c #D87D7D",
"$ c #7E8387",
"% c #B6B6B6",
"& c #93F69D",
"* c white",
/* pixels */
"                                                                ",
"                                                                ",
"                                                                ",
"                                                                ",
"                                                                ",
"                                                                ",
"                                                                ",
"                                                                ",
"                                                                ",
"                                                                ",
"                                                                ",
"                                                                ",
"                                                                ",
"                                                                ",
"                                                                ",
"                                                                ",
"               ****************************                     ",
"              **..........................**                    ",
"              *.%%%%%%%.$$$$$$$$$$$$$$$$$+.*                    ",
"              *.%%%%%%%.$$$$$$$$$$$$$$$$$+.*                    ",
"              *.%%%%%%%.$$..............$+.*                    ",
"              *.%%%%%%%.$$.XXXXXXXXXXXX.$+.*                    ",
"              *.%%...%%.$$.X&&oooooo&&X.$+.*                    ",
"              *.%.%%%.$.$$.Xoo&&oo&&ooX.$+.*                    ",
"              *.%.$$$.$.$$.Xoooo&&ooooX.$+.*                    ",
"              *.%.+++.$.$$.Xoo&&oo&&ooX.$+.*                    ",
"              *.%%...$$.$$.X&&oooooo&&X.$+.*                    ",
"              *.%%$$$$%.$$.XXXXXXXXXXXX.$+.*                    ",
"              *.%%%%%%%.$$..............$+.*                    ",
"              *.%%%%%%%.$$$$$$$$$$$$$$$$++.*                    ",
"              *.%%%%%%%.++++++++++++++++++.*                    ",
"              **..........................**                    ",
"               *******...%%$$$$$....*******                     ",
"                    *.#@...$$...%.O.*                           ",
"                    *.#@.%$...%%$.O.*                           ",
"                    *....$+.%%%$+.O.*                           ",
"                    *.%$.++.%%%$+.O.*                           ",
"                    *.%$......%%$.O.*                           ",
"                    *.%$.%%++...%.O.*                           ",
"                    *.%$.%%$$+++....*                           ",
"                    *.%$.%%$$$$++++.*                           ",
"                    *.%$.%%$$$$$$$$.*                           ",
"                    *.%$.%%$$$$$$$$.*                           ",
"                    **...%%$.$$$$$$.*                           ",
"                     ***.%%$.++++$$.*                           ",
"                       *.%%$.....%$.*                           ",
"                       *.%%$.***.%+.*                           ",
"                       *.%%$.* *.++.*                           ",
"                       *.....* *....*                           ",
"                       ******* ******                           ",
"                                                                ",
"                                                                ",
"                                                                ",
"                                                                ",
"                                                                ",
"                                                                ",
"                                                                ",
"                                                                ",
"                                                                ",
"                                                                ",
"                                                                ",
"                                                                ",
"                                                                ",
"                                                                "
};
