/* XPM */
static char *idle0041675243440[] = {
/* columns rows colors chars-per-pixel */
"64 64 11 1 ",
"  c None",
". c black",
"X c #212722",
"o c #323C33",
"O c #2D4E29",
"+ c #4A5D6C",
"@ c #6DE579",
"# c #7E8387",
"$ c #B6B6B6",
"% c #93F69D",
"& c white",
/* pixels */
"                                                                ",
"                                                                ",
"                                                                ",
"                                                                ",
"                                                                ",
"                                                                ",
"                                                                ",
"                                                                ",
"                                                                ",
"                                                                ",
"                                                                ",
"                                                                ",
"                  &&&&&&&&&&&&&&&&&&&&&&&                       ",
"                 &&.....................&&                      ",
"                 &.$$$$$.##############+.&                      ",
"                 &.$$$$$.##############+.&                      ",
"                 &.$$$$$.##...........#+.&                      ",
"                 &.$$$$$.##.XXXXXXXXX.#+.&                      ",
"                 &.$$..$.##.XoooooooX.#+.&                      ",
"                 &.$.$$..##.XoooooooX.#+.&                      ",
"                 &.$.$#..##.Xoo%%o@@X.#+.&                      ",
"                 &.$.##..##.Xoo@@o%%X.#+.&                      ",
"                 &.$.##..##.Xoo@@o%%X.#+.&                      ",
"                 &.$.##..##.Xoo%%o@@X.#+.&                      ",
"                 &.$.++..##.XoooooooX.#+.&                      ",
"                 &.$$..#.##.Xooo@%@oX.#+.&                      ",
"                 &.$$###.##.XXXXXXXXX.#+.&                      ",
"                 &.$$$$$.##...........#+.&                      ",
"                 &.$$$$$.#############++.&                      ",
"                 &.$$$$$.+++++++++++++++.&                      ",
"                 &&.....................&&                      ",
"                  &&&.$#.$$####...+.&&&&&                       ",
"                    &.$#..$##..$.O..&                           ",
"                    &.$.$#...$$#.O..&                           ",
"                    &.$.#+.$$$#+.O..&                           ",
"                    &.$.++.$$$#+.O..&                           ",
"                    &.$#.....$$#.O..&                           ",
"                    &.$#.#$##..$.O..&                           ",
"                    &&...$$####...+.&                           ",
"                     &&&.$$####++++.&                           ",
"                       &.$$########.&                           ",
"                       &.$$########.&                           ",
"                       &.$$#.######.&                           ",
"                       &.$$#.++++##.&                           ",
"                       &.$$#.....$#.&                           ",
"                       &.$$#.&&&.$#.&                           ",
"                       &.$$#.& &.$+.&                           ",
"                       &.$$#.& &.++.&                           ",
"                       &.....& &....&                           ",
"                       &&&&&&& &&&&&&                           ",
"                                                                ",
"                                                                ",
"                                                                ",
"                                                                ",
"                                                                ",
"                                                                ",
"                                                                ",
"                                                                ",
"                                                                ",
"                                                                ",
"                                                                ",
"                                                                ",
"                                                                ",
"                                                                "
};
