/* XPM */
static char *_672327d1a614422c144e94cfe84468d9gNOKZZ8OZyPuI6x[] = {
/* columns rows colors chars-per-pixel */
"64 64 8 1 ",
"  c None",
". c black",
"X c #437DBF",
"o c #59A6FF",
"O c #BFDFFF",
"+ c #C0C0C0",
"@ c gray95",
"# c white",
/* pixels */
"                          ............                          ",
"                      ....#########.##....                      ",
"                   ...####XXXXXXXXXX.@####...                   ",
"                 ..###XXXXXoooooooooo.@@@@###..                 ",
"               ..##XXXXXooooooooooooo.###@@@@##..               ",
"              .##XXXXXXoooooooooooooo.#####@@@@##.              ",
"             .#XXXXXXooooooooooooooooo.######@@@@#.             ",
"           ..#XXXXXXoooooooooooooooooo.########@@@#..           ",
"          .##XXXXXXooooooooooooooooooo.#########@@@##.          ",
"         .#XXXXXXXoooooooooooooooooooo.@##########@@@#.         ",
"        .#XXXXXXXooooooooooooooooooooo.@###########@@@#.        ",
"       .#XXXXXXXXooooooooooooooooooooo.@@###########@@@#.       ",
"       .#XXXXXXXoooooooooooooooooooooo.@@@###########@@#.       ",
"      .#XXXXXXXXo............ooooooo......@###########@@#.      ",
"     .#XXXXXXX...############..ooo..######..###########@@#.     ",
"    .#XXXXX...#################...#########.###########@@@#.    ",
"    .#XXX..@@@@@@@@@@@@@@#######.###########.....#######@@#.    ",
"   .#XX..@@@@@@@@@@@@@@@@@@@@###.############.ooo....####@@#.   ",
"   .XX.@@@@@@@@@@@@@@@@@@@@@@@#.@#############.oooooo....@@#.   ",
"  .#X.@@@@@@@@@@@@@@@@@@@@@@@@@.@@############.oooooooooo...#.  ",
"  .#.@@@@@@@@@@@@@@@@@@@@@@@@@@.@@@###########.ooooooooooooo..  ",
"  ..@@@@@@@@@@@@@@@@@@@@@@@@@@@.@@@###########.oooooooooooooo.  ",
" .#@@@@@@@@@@@@@@@@@@@@@@@@@@@@.@@@@##########.ooooooooooooooo. ",
" .#@@@@@@@@@@@@@@@@@@@@@@@@@@@..@@@@@@########.ooooooooooooooo. ",
" .#@@@@@@@@@@@@@@@@@@@@@@@@@..XX.@@@@@@@@####.oooooooooooooooo. ",
" .@@@@@@@@@@@@@@@@@@@@@@@@@.XXXX.@@@@@@@@@###..ooooooooooooooo. ",
".#@@@@@@@@@@@@@@@@@@@@@@@..XXXXXX.@@@@@@@@@@.##.oooooooooooooo..",
".#@@@@@@@@@@@@@@@@@@@@@@.XXXXXXXXX..@@@@@@..###.oooooooooooooX..",
".#@@@@@@@@@@@@@@@@@@@@..XXXXXXXXXXXX......######.ooooooooooooXO.",
".#@@@@@@@@@@@@@@@@@@@.XXXXXXXXXXXXXXX.@@@#######.ooooooooooooXO.",
".#@@@@@@@@@@@@@@@@@..XXXXXXXXXXXXXXXX.@@@@#######.oooooooooooXO.",
".#@@@@@@@@@@@@@@@@.XXXXXXXXXXXXXXXXXX.@@@@@@######.ooooooooooXO.",
".#@@@@@@@@@@@@@@..XXXXXXXXXXXXXXXXXXX.@@@@@@@#####.ooooooooooXO.",
".#@@@@@@@@@@@@@.XXXXXXXXXXXXXXXXXXXX.@@@@@@@@@#####.oooooooooXO.",
".#@@@@@@@@@@@@.XXXXXXXXXXXXXXXXXXXXX.@@@@@@@@@@####.oooooooooXO.",
".#@@@@@@@@@@..XXXXXXXXXXXXXXXXXXXXXX.@@@@@@@@@@@###.ooooooooXXO.",
".#@@@@@@@@@.XXXXXXXXXXXXXXXXXXXXXXXX.@@@@@@@@@@@@###.oooooooXXO.",
".#@@@@@@@..XXXXXXXXXXXXXXXXXXXXXXXXX.@@@@@@@@@@@@@##.oooooooXXO.",
" .#@@@@@.XXXXXXXXXXXXXXXXXXXXXXXXXXX.@@@@@@@@@@@@@##.ooooooXXO. ",
" .#@@@@.XXXXXXXXXXXXXXXXXXXXXXXXXXXX.@@@@@@@@@@@@@@#.ooooooXXO. ",
" .#@@@.XXXXXXXXXXXXXXXXXXXXXXXXXXXX.@@@@@@@@@@@@@@@@.XXooooXXO. ",
" .#@@@.XXXXXXXXXXXXXXXXXXXXXXXXXXXX.@@@@@@@@@@@@@@@@@.XXooXXXO. ",
"  .#@.XXXXXXXXXXXXXXXXXXXXXXXXXXXXX.@@@@@@@@@@@@@@@@@.XXXXXXO.  ",
"  .#.XXXXXXXXXXXXXXXXXXXXXXXXXXXXXX.@@@@@@@@@@@@@@@@@.XXXXXXO.  ",
"  .#.XXXXXXXXXXXXXXXXXXXXXXXXXXXXXX.@@@@@@@@@@@@@@@@@.XXXXXXO.  ",
"   .OXXXXXXXXXXXXXXXXXXXXXXXXXXXXXX.@@@@@@@@@@@@@@@@@.XXXXXO.   ",
"   .OXXXXXXXXXXXXXXXXXXXXXXXXXXXXX.@@@@@@@@@@@@@@@@@@.XXXXXO.   ",
"    .OXXXXXXXXXXXXXXXXXXXXXXXXXXXX.@@@@@@@@@@@@@@@@@@.XXXXO.    ",
"    .OXXXXXXXXXXXXXXXXXXXXXXXXXXXX.@@@@@@@@@@@@@@@@@@.XXXXO.    ",
"     .OXXXXXXXXXXXXXXXXXXXXXXXXXXX.@@@@@@@@@@@@@@@@@@.XXXO.     ",
"      .OXXXXXXXXXXXXXXXXXXXXXXXXXX.@@@@@@@@@@@@@@@@@@.XXO.      ",
"       .OXXXXXXXXXXXXXXXXXXXXXXXXX.@@@@@@@@@@@@@@@@@.XXO.       ",
"       .OXXXXXXXXXXXXXXXXXXXXXXXX.@@@@@@@@@@@@@@@@@@.XXO.       ",
"        .OXXXXXXXXXXXXXXXXXXXXXXX.@@@@@@@@@@@@@@@@@.XXO.        ",
"         .OXXXXXXXXXXXXXXXXXXXXXX.@@@@@@@@@@@@@@@@@.XO.         ",
"          .OOXXXXXXXXXXXXXXXXXXXX.@@@@@@@@@@@@@@@@.OO.          ",
"           ..OXXXXXXXXXXXXXXXXXXX.@@@@@@@@@@@@@@@.O..           ",
"             .OXXXXXXXXXXXXXXXXXX.@@@@@@@@@@@@@@.O.             ",
"              .OOXXXXXXXXXXXXXXXX.@@@@@@@@@@@@@+..              ",
"               ..OOXXXXXXXXXXXXX.@@@@@@@@@@@@++..               ",
"                 ..OOOXXXXXXXXXX.@@@@@@@@@+++..                 ",
"                   ...OOOOXXXXXX.@@@@@++++...                   ",
"                      ....OOOOOO.+++++....                      ",
"                          ............                          "
};
