/* XPM */
static char *_e0d3b8675f74070f51916a763c446c3zRplKrfRv11b51zy[] = {
/* columns rows colors chars-per-pixel */
"64 64 8 1 ",
"  c None",
". c black",
"X c #437DBF",
"o c #59A6FF",
"O c #BFDFFF",
"+ c #C0C0C0",
"@ c gray95",
"# c white",
/* pixels */
"                          ............                          ",
"                      ....#########.OO....                      ",
"                   ...####@@@@@@@@@@.XOOOO...                   ",
"                 ..###@@@@@##########.XXXXOOO..                 ",
"               ..##@@@@@#############.oooXXXXOO..               ",
"              .##@@@@@@##############.oooooXXXXOO.              ",
"             .#@@@@@@#################.ooooooXXXXO.             ",
"           ..#@@@@@@##################.ooooooooXXXO..           ",
"          .##@@@@@@###################.oooooooooXXXOO.          ",
"         .#@@@@@@@####################.XooooooooooXXXO.         ",
"        .#@@@@@@@#####################.XoooooooooooXXXO.        ",
"       .#@@@@@@@@#####################.XXoooooooooooXXXO.       ",
"       .#@@@@@@@######################.XXXoooooooooooXXO.       ",
"      .#@@@@@@@@#............#######......XoooooooooooXXO.      ",
"     .#@@@@@@@...oooooooooooo..###..######..oooooooooooXXO.     ",
"    .#@@@@@...ooooooooooooooooo...#########.oooooooooooXXXO.    ",
"    .#@@@..XXXXXXXXXXXXXXooooooo.###########.....oooooooXXO.    ",
"   .#@@..XXXXXXXXXXXXXXXXXXXXooo.############.###....ooooXXO.   ",
"   .@@.XXXXXXXXXXXXXXXXXXXXXXXo.@#############.######....XXO.   ",
"  .#@.XXXXXXXXXXXXXXXXXXXXXXXXX.@@############.##########...O.  ",
"  .#.XXXXXXXXXXXXXXXXXXXXXXXXXX.@@@###########.#############..  ",
"  ..XXXXXXXXXXXXXXXXXXXXXXXXXXX.@@@###########.##############.  ",
" .OXXXXXXXXXXXXXXXXXXXXXXXXXXXX.@@@@##########.###############. ",
" .OXXXXXXXXXXXXXXXXXXXXXXXXXXX..@@@@@@########.###############. ",
" .OXXXXXXXXXXXXXXXXXXXXXXXXX..@@.@@@@@@@@####.################. ",
" .XXXXXXXXXXXXXXXXXXXXXXXXX.@@@@.@@@@@@@@@###..###############. ",
".OXXXXXXXXXXXXXXXXXXXXXXX..@@@@@@.@@@@@@@@@@.oo.###############.",
".OXXXXXXXXXXXXXXXXXXXXXX.@@@@@@@@@..@@@@@@..ooo.#############@#.",
".OXXXXXXXXXXXXXXXXXXXX..@@@@@@@@@@@@......oooooo.############@#.",
".OXXXXXXXXXXXXXXXXXXX.@@@@@@@@@@@@@@@.XXXooooooo.############@#.",
".OXXXXXXXXXXXXXXXXX..@@@@@@@@@@@@@@@@.XXXXooooooo.###########@#.",
".OXXXXXXXXXXXXXXXX.@@@@@@@@@@@@@@@@@@.XXXXXXoooooo.##########@#.",
".OXXXXXXXXXXXXXX..@@@@@@@@@@@@@@@@@@@.XXXXXXXooooo.##########@#.",
".OXXXXXXXXXXXXX.@@@@@@@@@@@@@@@@@@@@.XXXXXXXXXooooo.#########@#.",
".OXXXXXXXXXXXX.@@@@@@@@@@@@@@@@@@@@@.XXXXXXXXXXoooo.#########@#.",
".OXXXXXXXXXX..@@@@@@@@@@@@@@@@@@@@@@.XXXXXXXXXXXooo.########@@#.",
".OXXXXXXXXX.@@@@@@@@@@@@@@@@@@@@@@@@.XXXXXXXXXXXXooo.#######@@#.",
".OXXXXXXX..@@@@@@@@@@@@@@@@@@@@@@@@@.XXXXXXXXXXXXXoo.#######@@#.",
" .OXXXXX.@@@@@@@@@@@@@@@@@@@@@@@@@@@.XXXXXXXXXXXXXoo.######@@#. ",
" .OXXXX.@@@@@@@@@@@@@@@@@@@@@@@@@@@@.XXXXXXXXXXXXXXo.######@@#. ",
" .OXXX.@@@@@@@@@@@@@@@@@@@@@@@@@@@@.XXXXXXXXXXXXXXXX.@@####@@#. ",
" .OXXX.@@@@@@@@@@@@@@@@@@@@@@@@@@@@.XXXXXXXXXXXXXXXXX.@@##@@@#. ",
"  .OX.@@@@@@@@@@@@@@@@@@@@@@@@@@@@@.XXXXXXXXXXXXXXXXX.@@@@@@#.  ",
"  .O.@@@@@@@@@@@@@@@@@@@@@@@@@@@@@@.XXXXXXXXXXXXXXXXX.@@@@@@#.  ",
"  .O.@@@@@@@@@@@@@@@@@@@@@@@@@@@@@@.XXXXXXXXXXXXXXXXX.@@@@@@#.  ",
"   .#@@@@@@@@@@@@@@@@@@@@@@@@@@@@@@.XXXXXXXXXXXXXXXXX.@@@@@+.   ",
"   .#@@@@@@@@@@@@@@@@@@@@@@@@@@@@@.XXXXXXXXXXXXXXXXXX.@@@@@+.   ",
"    .#@@@@@@@@@@@@@@@@@@@@@@@@@@@@.XXXXXXXXXXXXXXXXXX.@@@@+.    ",
"    .#@@@@@@@@@@@@@@@@@@@@@@@@@@@@.XXXXXXXXXXXXXXXXXX.@@@@+.    ",
"     .#@@@@@@@@@@@@@@@@@@@@@@@@@@@.XXXXXXXXXXXXXXXXXX.@@@+.     ",
"      .#@@@@@@@@@@@@@@@@@@@@@@@@@@.XXXXXXXXXXXXXXXXXX.@@+.      ",
"       .#@@@@@@@@@@@@@@@@@@@@@@@@@.XXXXXXXXXXXXXXXXX.@@+.       ",
"       .#@@@@@@@@@@@@@@@@@@@@@@@@.XXXXXXXXXXXXXXXXXX.@@+.       ",
"        .#@@@@@@@@@@@@@@@@@@@@@@@.XXXXXXXXXXXXXXXXX.@@+.        ",
"         .+@@@@@@@@@@@@@@@@@@@@@@.XXXXXXXXXXXXXXXXX.@+.         ",
"          .++@@@@@@@@@@@@@@@@@@@@.XXXXXXXXXXXXXXXX.++.          ",
"           ..+@@@@@@@@@@@@@@@@@@@.XXXXXXXXXXXXXXX.+..           ",
"             .+@@@@@@@@@@@@@@@@@@.XXXXXXXXXXXXXX.+.             ",
"              .++@@@@@@@@@@@@@@@@.XXXXXXXXXXXXXO..              ",
"               ..++@@@@@@@@@@@@@.XXXXXXXXXXXXOO..               ",
"                 ..+++@@@@@@@@@@.XXXXXXXXXOOO..                 ",
"                   ...++++@@@@@@.XXXXXOOOO...                   ",
"                      ....++++++.OOOOO....                      ",
"                          ............                          "
};
