/* XPM */
static char *result[] = {
/* columns rows colors chars-per-pixel */
"64 64 6 1 ",
"  c #1C2B2D",
". c #1F6F8B",
"X c #99A8B2",
"o c #E6D5B8",
"O c white",
"+ c None",
/* pixels */
"++++++++++++++++++++++++++++++++++++++++++++++++++++++++++++++++",
"++++++++++++++++++++++++++++++++++++++++++++++++++++++++++++++++",
"++++++++++++++++++++++++++++++++++++++++++++++++++++++++++++++++",
"++++++++++++++++++++++++++++++++++++++++++++++++++++++++++++++++",
"++++++++++++++++++++++++++++++OOOOOOOOOOO+++++++++++++++++++++++",
"++++++++++++++++++++++++++++OO           OO+++++++++++++++++++++",
"+++++++++++++++++++++++++++O  ooooooooooo  O++++++++++++++++++++",
"++++++++++++++++++++++++++O ooooooooooooooo O+++++++++++++++++++",
"+++++++++++++++++++++++++O ooooooooooooooooo O++++++++++++++++++",
"++++++++++++++++++++++++O ooooooooooooooooooo O+++++++++++++++++",
"+++++++++++++++++++++++O ooooooooooooooooooooo OOOO+++++++++++++",
"+++++++++++++++++++++++O ooooooooooooooooooooo O   O++++++++++++",
"++++++++++++++++++++++O ooooooooooooooooooooooo ooo O+++++++++++",
"++++++++++++++++++++++O oooooooooooooooooooooo oooo O+++++++++++",
"++++++++++++++++++++++O ooooooooooooooooooooo oooo O++++++++++++",
"+++++++++++++++++++++O ooooooooooooooooooooo ooooo O++++++++++++",
"+++++++++++++++++++++O    ooooo    ooooooooo ooooo O++++++++++++",
"++++++++++++++++++++O     ooooo    oooooooo ooooo O+++++++++++++",
"++++++++++++++++++++O   X  ooo   X  ooooooo ooooo O+++++++++++++",
"++++++++++++++++++++O      ooo      oooooo oooooo O+++++++++++++",
"++++++++++++++++++++O      ooo      oooooooooooo O++++++++++++++",
"++++++++++++++++++++O     ooooX    oooooooooooo  O++++++++++++++",
"+++++++++++++++++++++O    ooooX    oooooooooo  o O++++++++++++++",
"+++++++++++++++++++++O XXooooooXXXoooooooooooXX O+++++++++++++++",
"+++++++++++++++++++++O oooooooooooooooooooooooo O+++++++++++++++",
"+++++++++++++++++++++O oooooooooooooooooooooooo O+++++++++++++++",
"++++++++++++++++++++++O oooooooooooooooooooooo OOO++++++++++++++",
"+++++++++++++++++++O    oooooooooooo              O+++++++++++++",
"+++++++++++++++++++O    oo      oooo ............ O+++++++++++++",
"++++++++++++++++++++O    oo oo ooooo ............ O+++++++++++++",
"+++++++++++++++++++++OO   oooooooooo ........... O++++++++++++++",
"++++++++++++++++++++++O    oooooooooo .......... O++++++++++++++",
"+++++++++++++++++++++++O    ooooooooo ......... O+++++++++++++++",
"+++++++++++++++++++++++O     oooooooo ......... O+++++++++++++++",
"+++++++++++++++++++++++O .            ......... O+++++++++++++++",
"+++++++++++++++++++++++O ..          ......... O++++++++++++++++",
"+++++++++++++++++++++++O ...        .......... O++++++++++++++++",
"+++++++++++++++++++++++O ....       ......... O+++++++++++++++++",
"++++++++++++++++++++++O  .....     .......    O+++++++++++++++++",
"+++++++++++++++++++++O . ......   ....... ... O+++++++++++++++++",
"++++++++++++++++++++O .. ....... ........ ... O+++++++++++++++++",
"+++++++++++++++++++O ... ............... ..... O++++++++++++++++",
"++++++++++++++++++O o... ............... ..... O++++++++++++++++",
"++++++++++++++++++O oo.. ............... ..... O++++++++++++++++",
"++++++++++++++++++O ooo. ............... ..... O++++++++++++++++",
"++++++++++++++++++O ooo  ............... ..... O++++++++++++++++",
"+++++++++++++++++++O   O ............... ..... O++++++++++++++++",
"++++++++++++++++++++OOOO ............... ooooo O++++++++++++++++",
"+++++++++++++++++++++++O ................ ooo O+++++++++++++++++",
"+++++++++++++++++++++++O ................ ooo O+++++++++++++++++",
"+++++++++++++++++++++++O .................   O++++++++++++++++++",
"+++++++++++++++++++++++O ......... ......... O++++++++++++++++++",
"+++++++++++++++++++++++O .......... ........ O++++++++++++++++++",
"++++++++++++++++++++++++O ......... ....... O+++++++++++++++++++",
"+++++++++++++++++++++++++O ........ ....... O+++++++++++++++++++",
"++++++++++++++++++++++++++O         ....... O+++++++++++++++++++",
"+++++++++++++++++++++++++++OOOOOOOO ....... O+++++++++++++++++++",
"+++++++++++++++++++++++++++++++++++ XXX.... O+++++++++++++++++++",
"+++++++++++++++++++++++++++++++++++O  XXXX. O+++++++++++++++++++",
"++++++++++++++++++++++++++++++++++++OO     O++++++++++++++++++++",
"++++++++++++++++++++++++++++++++++++++OOOOO+++++++++++++++++++++",
"++++++++++++++++++++++++++++++++++++++++++++++++++++++++++++++++",
"++++++++++++++++++++++++++++++++++++++++++++++++++++++++++++++++",
"++++++++++++++++++++++++++++++++++++++++++++++++++++++++++++++++"
};
