/* XPM */
static char *result[] = {
/* columns rows colors chars-per-pixel */
"64 64 6 1 ",
"  c #1C2B2D",
". c #1F6F8B",
"X c #99A8B2",
"o c #E6D5B8",
"O c white",
"+ c None",
/* pixels */
"++++++++++++++++++++++++++++++++++++++++++++++++++++++++++++++++",
"++++++++++++++++++++++++++++++++++++++++++++++++++++++++++++++++",
"++++++++++++++++++++++++++++++++++++++++++++++++++++++++++++++++",
"++++++++++++++++++++++++++++++OOOOOOOOOOO+++++++++++++++++++++++",
"++++++++++++++++++++++++++++OO           OO+++++++++++++++++++++",
"+++++++++++++++++++++++++++O  ooooooooooo  O++++++++++++++++++++",
"++++++++++++++++++++++++++O ooooooooooooooo O+++++++++++++++++++",
"+++++++++++++++++++++++++O ooooooooooooooooo O++++++++++++++++++",
"++++++++++++++++++++++++O ooooooooooooooooooo O+++++++++++++++++",
"+++++++++++++++++++++++O ooooooooooooooooooooo O++++++++++++++++",
"+++++++++++++++++++++++O ooooooooooooooooooooo OOOOO++++++++++++",
"++++++++++++++++++++++O ooooooooooooooooooooooo     O+++++++++++",
"++++++++++++++++++++++O ooooooooooooooooooooooo ooo O+++++++++++",
"++++++++++++++++++++++O oooooooooooooooooooooo oooo ++++++++++++",
"+++++++++++++++++++++O oooooooooooooooooooooo oooo O++++++++++++",
"+++++++++++++++++++++O    ooooo    ooooooooo ooooo O++++++++++++",
"++++++++++++++++++++O     ooooo    oooooooo ooooo O+++++++++++++",
"++++++++++++++++++++O   X  ooo   X  ooooooo ooooo O+++++++++++++",
"++++++++++++++++++++O      ooo      oooooo oooooo O+++++++++++++",
"++++++++++++++++++++O      ooo      oooooooooooo O++++++++++++++",
"++++++++++++++++++++O     ooooX    oooooooooooo  O++++++++++++++",
"+++++++++++++++++++++O    ooooX    oooooooooo  o O++++++++++++++",
"+++++++++++++++++++++O XXooooooXXXoooooooooooXX O+++++++++++++++",
"+++++++++++++++++++++O oooooooooooooooooooooooo O+++++++++++++++",
"+++++++++++++++++++++O oooooooooooooooooooooooo O+++++++++++++++",
"++++++++++++++++++++++O oooooooooooooooooooooo O++++++++++++++++",
"++++++++++++++++++++++O oooooooooooooooooooooo O++++++++++++++++",
"++++++++++++++++++++OOO oo      ooooooooooooo OOOO++++++++++++++",
"+++++++++++++++++++O     oo oo ooooo              O+++++++++++++",
"+++++++++++++++++++O      oooooooooo ............ O+++++++++++++",
"++++++++++++++++++++O      ooooooooo ............ O+++++++++++++",
"+++++++++++++++++++++OO     oooooooo ........... O++++++++++++++",
"++++++++++++++++++++++O      oooooooo .......... O++++++++++++++",
"+++++++++++++++++++++++O              ......... O+++++++++++++++",
"+++++++++++++++++++++++O              ......... O+++++++++++++++",
"+++++++++++++++++++++++O .            ......... O+++++++++++++++",
"+++++++++++++++++++++++O ..          ......... O++++++++++++++++",
"+++++++++++++++++++++++O ...        .......... O++++++++++++++++",
"++++++++++++++++++++++O  ....       .......    O++++++++++++++++",
"++++++++++++++++++++++O  .....     ....... ... O++++++++++++++++",
"++++++++++++++++++++++O  ......   ....... .... O++++++++++++++++",
"++++++++++++++++++++++O  ....... ....... ..... O++++++++++++++++",
"+++++++++++++++++++++O . ............... ..... O++++++++++++++++",
"+++++++++++++++++++++O . ............... ..... O++++++++++++++++",
"+++++++++++++++++++++O . .............. ..... O+++++++++++++++++",
"+++++++++++++++++++++O o .............. ..... O+++++++++++++++++",
"+++++++++++++++++++++O o .............. ooo.. O+++++++++++++++++",
"+++++++++++++++++++++O o .............. oooo O++++++++++++++++++",
"++++++++++++++++++++++O  .............. ooo O+++++++++++++++++++",
"+++++++++++++++++++++++O ...............    O+++++++++++++++++++",
"+++++++++++++++++++++++O ................... O++++++++++++++++++",
"+++++++++++++++++++++++O ................... O++++++++++++++++++",
"+++++++++++++++++++++++O ......... ......... O++++++++++++++++++",
"+++++++++++++++++++++++O ........ O ......... O+++++++++++++++++",
"+++++++++++++++++++++++O ....... O+O ........ O+++++++++++++++++",
"+++++++++++++++++++++++O ....... O++O .....XX O+++++++++++++++++",
"+++++++++++++++++++++++O ....... O++O .....X  ++++++++++++++++++",
"+++++++++++++++++++++++O XX..... O++O  .XXX  O++++++++++++++++++",
"+++++++++++++++++++++++O  XXXXX  O+++O      O+++++++++++++++++++",
"++++++++++++++++++++++++OO     OO+++++OOOOOO++++++++++++++++++++",
"++++++++++++++++++++++++++OOOOO+++++++++++++++++++++++++++++++++",
"++++++++++++++++++++++++++++++++++++++++++++++++++++++++++++++++",
"++++++++++++++++++++++++++++++++++++++++++++++++++++++++++++++++",
"++++++++++++++++++++++++++++++++++++++++++++++++++++++++++++++++"
};
